<svg xmlns="http://www.w3.org/2000/svg" xmlns:xlink="http://www.w3.org/1999/xlink" width="247" zoomAndPan="magnify" viewBox="0 0 185.25 207.749994" height="277" preserveAspectRatio="xMidYMid meet" version="1.0"><defs><g/><clipPath id="8231e6109e"><path d="M 11.386719 45.769531 L 172.574219 45.769531 L 172.574219 206.957031 L 11.386719 206.957031 Z M 11.386719 45.769531 " clip-rule="nonzero"/></clipPath></defs><g clip-path="url(#8231e6109e)"><path fill="#ffffff" d="M 11.386719 45.769531 L 172.574219 45.769531 L 172.574219 206.957031 L 11.386719 206.957031 Z M 11.386719 45.769531 " fill-opacity="1" fill-rule="nonzero"/></g><path stroke-linecap="butt" transform="matrix(3.041237, 0, 0, 3.041237, 11.387653, 45.77111)" fill-opacity="1" fill="#ffffff" fill-rule="nonzero" stroke-linejoin="miter" d="M 1.999547 2.500262 L 8.99968 2.500262 M 12.000104 2.500262 L 12.999388 2.500262 M 15.000527 2.500262 L 15.999812 2.500262 M 19.999521 2.500262 L 21.00009 2.500262 M 21.999375 2.500262 L 22.999945 2.500262 M 24.000514 2.500262 L 26.999654 2.500262 M 31.999932 2.500262 L 33.999786 2.500262 M 35.000356 2.500262 L 40.000634 2.500262 M 42.000488 2.500262 L 42.999773 2.500262 M 44.000342 2.500262 L 51.000475 2.500262 M 1.999547 3.499547 L 3.000117 3.499547 M 8.000395 3.499547 L 8.99968 3.499547 M 12.000104 3.499547 L 17.999667 3.499547 M 19.000236 3.499547 L 19.999521 3.499547 M 21.00009 3.499547 L 21.999375 3.499547 M 22.999945 3.499547 L 24.000514 3.499547 M 26.000369 3.499547 L 28.000223 3.499547 M 28.999508 3.499547 L 30.000077 3.499547 M 30.999362 3.499547 L 33.000501 3.499547 M 35.000356 3.499547 L 35.999641 3.499547 M 39.000064 3.499547 L 42.999773 3.499547 M 44.000342 3.499547 L 44.999627 3.499547 M 49.999906 3.499547 L 51.000475 3.499547 M 1.999547 4.500117 L 3.000117 4.500117 M 3.999402 4.500117 L 6.999825 4.500117 M 8.000395 4.500117 L 8.99968 4.500117 M 10.000249 4.500117 L 12.000104 4.500117 M 13.999958 4.500117 L 15.000527 4.500117 M 17.000382 4.500117 L 19.999521 4.500117 M 21.00009 4.500117 L 21.999375 4.500117 M 24.000514 4.500117 L 26.999654 4.500117 M 28.999508 4.500117 L 30.999362 4.500117 M 31.999932 4.500117 L 37.999495 4.500117 M 40.999919 4.500117 L 42.999773 4.500117 M 44.000342 4.500117 L 44.999627 4.500117 M 46.000197 4.500117 L 49.000621 4.500117 M 49.999906 4.500117 L 51.000475 4.500117 M 1.999547 5.499402 L 3.000117 5.499402 M 3.999402 5.499402 L 6.999825 5.499402 M 8.000395 5.499402 L 8.99968 5.499402 M 10.000249 5.499402 L 10.999534 5.499402 M 12.999388 5.499402 L 19.000236 5.499402 M 21.00009 5.499402 L 21.999375 5.499402 M 22.999945 5.499402 L 24.999799 5.499402 M 26.000369 5.499402 L 28.000223 5.499402 M 30.000077 5.499402 L 31.999932 5.499402 M 33.999786 5.499402 L 35.000356 5.499402 M 35.999641 5.499402 L 37.00021 5.499402 M 40.999919 5.499402 L 42.000488 5.499402 M 44.000342 5.499402 L 44.999627 5.499402 M 46.000197 5.499402 L 49.000621 5.499402 M 49.999906 5.499402 L 51.000475 5.499402 M 1.999547 6.499971 L 3.000117 6.499971 M 3.999402 6.499971 L 6.999825 6.499971 M 8.000395 6.499971 L 8.99968 6.499971 M 10.000249 6.499971 L 10.999534 6.499971 M 12.000104 6.499971 L 19.999521 6.499971 M 24.000514 6.499971 L 28.999508 6.499971 M 31.999932 6.499971 L 33.999786 6.499971 M 39.000064 6.499971 L 40.000634 6.499971 M 44.000342 6.499971 L 44.999627 6.499971 M 46.000197 6.499971 L 49.000621 6.499971 M 49.999906 6.499971 L 51.000475 6.499971 M 1.999547 7.500541 L 3.000117 7.500541 M 8.000395 7.500541 L 8.99968 7.500541 M 10.000249 7.500541 L 12.000104 7.500541 M 13.999958 7.500541 L 17.999667 7.500541 M 19.000236 7.500541 L 19.999521 7.500541 M 21.00009 7.500541 L 21.999375 7.500541 M 22.999945 7.500541 L 24.999799 7.500541 M 28.000223 7.500541 L 31.999932 7.500541 M 33.999786 7.500541 L 37.00021 7.500541 M 40.000634 7.500541 L 40.999919 7.500541 M 44.000342 7.500541 L 44.999627 7.500541 M 49.999906 7.500541 L 51.000475 7.500541 M 1.999547 8.499825 L 8.99968 8.499825 M 10.000249 8.499825 L 10.999534 8.499825 M 12.000104 8.499825 L 12.999388 8.499825 M 13.999958 8.499825 L 15.000527 8.499825 M 15.999812 8.499825 L 17.000382 8.499825 M 17.999667 8.499825 L 19.000236 8.499825 M 19.999521 8.499825 L 21.00009 8.499825 M 21.999375 8.499825 L 22.999945 8.499825 M 24.000514 8.499825 L 24.999799 8.499825 M 26.000369 8.499825 L 26.999654 8.499825 M 28.000223 8.499825 L 28.999508 8.499825 M 30.000077 8.499825 L 30.999362 8.499825 M 31.999932 8.499825 L 33.000501 8.499825 M 33.999786 8.499825 L 35.000356 8.499825 M 35.999641 8.499825 L 37.00021 8.499825 M 37.999495 8.499825 L 39.000064 8.499825 M 40.000634 8.499825 L 40.999919 8.499825 M 42.000488 8.499825 L 42.999773 8.499825 M 44.000342 8.499825 L 51.000475 8.499825 M 10.000249 9.500395 L 10.999534 9.500395 M 12.000104 9.500395 L 12.999388 9.500395 M 13.999958 9.500395 L 17.000382 9.500395 M 19.000236 9.500395 L 19.999521 9.500395 M 24.000514 9.500395 L 24.999799 9.500395 M 28.000223 9.500395 L 28.999508 9.500395 M 33.000501 9.500395 L 33.999786 9.500395 M 35.000356 9.500395 L 39.000064 9.500395 M 1.999547 10.49968 L 3.000117 10.49968 M 3.999402 10.49968 L 8.99968 10.49968 M 15.999812 10.49968 L 19.999521 10.49968 M 21.00009 10.49968 L 21.999375 10.49968 M 22.999945 10.49968 L 30.999362 10.49968 M 31.999932 10.49968 L 33.000501 10.49968 M 33.999786 10.49968 L 35.000356 10.49968 M 39.000064 10.49968 L 40.000634 10.49968 M 40.999919 10.49968 L 42.000488 10.49968 M 44.000342 10.49968 L 49.000621 10.49968 M 3.000117 11.500249 L 4.999971 11.500249 M 6.999825 11.500249 L 8.000395 11.500249 M 10.000249 11.500249 L 12.000104 11.500249 M 13.999958 11.500249 L 15.000527 11.500249 M 15.999812 11.500249 L 17.000382 11.500249 M 17.999667 11.500249 L 19.999521 11.500249 M 22.999945 11.500249 L 26.999654 11.500249 M 28.000223 11.500249 L 28.999508 11.500249 M 30.000077 11.500249 L 30.999362 11.500249 M 31.999932 11.500249 L 33.999786 11.500249 M 35.000356 11.500249 L 42.000488 11.500249 M 44.000342 11.500249 L 46.999482 11.500249 M 49.000621 11.500249 L 49.999906 11.500249 M 4.999971 12.499534 L 10.999534 12.499534 M 12.000104 12.499534 L 12.999388 12.499534 M 17.999667 12.499534 L 21.999375 12.499534 M 24.000514 12.499534 L 24.999799 12.499534 M 26.000369 12.499534 L 26.999654 12.499534 M 28.000223 12.499534 L 30.000077 12.499534 M 31.999932 12.499534 L 33.000501 12.499534 M 33.999786 12.499534 L 35.000356 12.499534 M 35.999641 12.499534 L 37.00021 12.499534 M 37.999495 12.499534 L 39.000064 12.499534 M 40.999919 12.499534 L 42.000488 12.499534 M 46.000197 12.499534 L 49.000621 12.499534 M 1.999547 13.500104 L 3.000117 13.500104 M 3.999402 13.500104 L 6.00054 13.500104 M 8.99968 13.500104 L 10.000249 13.500104 M 12.999388 13.500104 L 13.999958 13.500104 M 15.999812 13.500104 L 17.000382 13.500104 M 19.000236 13.500104 L 19.999521 13.500104 M 21.00009 13.500104 L 21.999375 13.500104 M 24.999799 13.500104 L 26.999654 13.500104 M 33.000501 13.500104 L 33.999786 13.500104 M 35.000356 13.500104 L 37.999495 13.500104 M 39.000064 13.500104 L 40.000634 13.500104 M 42.999773 13.500104 L 48.000051 13.500104 M 49.000621 13.500104 L 51.000475 13.500104 M 1.999547 14.499389 L 3.000117 14.499389 M 3.999402 14.499389 L 4.999971 14.499389 M 6.00054 14.499389 L 6.999825 14.499389 M 8.000395 14.499389 L 8.99968 14.499389 M 10.000249 14.499389 L 12.000104 14.499389 M 12.999388 14.499389 L 13.999958 14.499389 M 15.999812 14.499389 L 19.000236 14.499389 M 22.999945 14.499389 L 28.000223 14.499389 M 28.999508 14.499389 L 30.000077 14.499389 M 37.00021 14.499389 L 40.999919 14.499389 M 42.000488 14.499389 L 44.000342 14.499389 M 46.000197 14.499389 L 46.999482 14.499389 M 48.000051 14.499389 L 49.000621 14.499389 M 3.000117 15.499958 L 6.00054 15.499958 M 6.999825 15.499958 L 8.000395 15.499958 M 8.99968 15.499958 L 10.000249 15.499958 M 12.000104 15.499958 L 22.999945 15.499958 M 24.000514 15.499958 L 26.999654 15.499958 M 30.000077 15.499958 L 30.999362 15.499958 M 31.999932 15.499958 L 33.999786 15.499958 M 35.000356 15.499958 L 35.999641 15.499958 M 37.00021 15.499958 L 37.999495 15.499958 M 40.999919 15.499958 L 42.999773 15.499958 M 44.000342 15.499958 L 44.999627 15.499958 M 48.000051 15.499958 L 49.000621 15.499958 M 49.999906 15.499958 L 51.000475 15.499958 M 1.999547 16.500527 L 3.000117 16.500527 M 4.999971 16.500527 L 6.00054 16.500527 M 8.000395 16.500527 L 10.000249 16.500527 M 12.999388 16.500527 L 13.999958 16.500527 M 17.000382 16.500527 L 17.999667 16.500527 M 21.999375 16.500527 L 26.000369 16.500527 M 26.999654 16.500527 L 28.000223 16.500527 M 28.999508 16.500527 L 33.000501 16.500527 M 35.999641 16.500527 L 37.999495 16.500527 M 39.000064 16.500527 L 42.000488 16.500527 M 42.999773 16.500527 L 44.999627 16.500527 M 46.999482 16.500527 L 49.000621 16.500527 M 49.999906 16.500527 L 51.000475 16.500527 M 1.999547 17.499812 L 3.999402 17.499812 M 4.999971 17.499812 L 8.000395 17.499812 M 10.000249 17.499812 L 13.999958 17.499812 M 15.000527 17.499812 L 15.999812 17.499812 M 19.999521 17.499812 L 22.999945 17.499812 M 24.000514 17.499812 L 24.999799 17.499812 M 26.000369 17.499812 L 30.000077 17.499812 M 30.999362 17.499812 L 31.999932 17.499812 M 35.000356 17.499812 L 35.999641 17.499812 M 37.00021 17.499812 L 39.000064 17.499812 M 40.000634 17.499812 L 42.000488 17.499812 M 44.000342 17.499812 L 46.000197 17.499812 M 48.000051 17.499812 L 49.000621 17.499812 M 49.999906 17.499812 L 51.000475 17.499812 M 1.999547 18.500382 L 3.000117 18.500382 M 3.999402 18.500382 L 10.000249 18.500382 M 12.000104 18.500382 L 13.999958 18.500382 M 17.000382 18.500382 L 19.999521 18.500382 M 21.00009 18.500382 L 21.999375 18.500382 M 22.999945 18.500382 L 24.000514 18.500382 M 26.000369 18.500382 L 28.000223 18.500382 M 30.000077 18.500382 L 30.999362 18.500382 M 33.000501 18.500382 L 35.000356 18.500382 M 37.999495 18.500382 L 39.000064 18.500382 M 40.000634 18.500382 L 42.000488 18.500382 M 42.999773 18.500382 L 44.000342 18.500382 M 46.999482 18.500382 L 48.000051 18.500382 M 49.999906 18.500382 L 51.000475 18.500382 M 3.999402 19.499667 L 4.999971 19.499667 M 6.00054 19.499667 L 6.999825 19.499667 M 8.99968 19.499667 L 10.999534 19.499667 M 12.999388 19.499667 L 13.999958 19.499667 M 15.000527 19.499667 L 15.999812 19.499667 M 19.000236 19.499667 L 21.00009 19.499667 M 21.999375 19.499667 L 24.000514 19.499667 M 24.999799 19.499667 L 26.999654 19.499667 M 28.999508 19.499667 L 31.999932 19.499667 M 33.999786 19.499667 L 35.000356 19.499667 M 39.000064 19.499667 L 40.000634 19.499667 M 42.000488 19.499667 L 42.999773 19.499667 M 44.000342 19.499667 L 48.000051 19.499667 M 49.999906 19.499667 L 51.000475 19.499667 M 3.000117 20.500236 L 6.999825 20.500236 M 8.000395 20.500236 L 10.000249 20.500236 M 15.000527 20.500236 L 19.000236 20.500236 M 21.00009 20.500236 L 21.999375 20.500236 M 24.000514 20.500236 L 28.000223 20.500236 M 30.000077 20.500236 L 30.999362 20.500236 M 31.999932 20.500236 L 35.000356 20.500236 M 35.999641 20.500236 L 37.00021 20.500236 M 37.999495 20.500236 L 39.000064 20.500236 M 42.999773 20.500236 L 44.000342 20.500236 M 48.000051 20.500236 L 49.000621 20.500236 M 49.999906 20.500236 L 51.000475 20.500236 M 3.999402 21.499521 L 6.00054 21.499521 M 10.999534 21.499521 L 12.999388 21.499521 M 13.999958 21.499521 L 15.000527 21.499521 M 15.999812 21.499521 L 17.000382 21.499521 M 21.00009 21.499521 L 21.999375 21.499521 M 22.999945 21.499521 L 24.000514 21.499521 M 26.000369 21.499521 L 28.999508 21.499521 M 31.999932 21.499521 L 37.00021 21.499521 M 40.000634 21.499521 L 42.000488 21.499521 M 42.999773 21.499521 L 44.999627 21.499521 M 46.999482 21.499521 L 48.000051 21.499521 M 49.000621 21.499521 L 51.000475 21.499521 M 3.000117 22.500091 L 4.999971 22.500091 M 6.999825 22.500091 L 12.000104 22.500091 M 15.999812 22.500091 L 17.000382 22.500091 M 19.000236 22.500091 L 22.999945 22.500091 M 24.999799 22.500091 L 26.000369 22.500091 M 28.000223 22.500091 L 31.999932 22.500091 M 33.999786 22.500091 L 35.000356 22.500091 M 37.999495 22.500091 L 39.000064 22.500091 M 42.000488 22.500091 L 42.999773 22.500091 M 46.999482 22.500091 L 49.000621 22.500091 M 49.999906 22.500091 L 51.000475 22.500091 M 10.999534 23.499376 L 12.999388 23.499376 M 15.999812 23.499376 L 17.000382 23.499376 M 17.999667 23.499376 L 21.00009 23.499376 M 22.999945 23.499376 L 24.000514 23.499376 M 24.999799 23.499376 L 30.000077 23.499376 M 31.999932 23.499376 L 33.000501 23.499376 M 37.999495 23.499376 L 39.000064 23.499376 M 40.000634 23.499376 L 40.999919 23.499376 M 44.000342 23.499376 L 44.999627 23.499376 M 46.999482 23.499376 L 48.000051 23.499376 M 49.000621 23.499376 L 49.999906 23.499376 M 4.999971 24.499945 L 12.000104 24.499945 M 12.999388 24.499945 L 15.000527 24.499945 M 22.999945 24.499945 L 30.000077 24.499945 M 31.999932 24.499945 L 33.000501 24.499945 M 35.000356 24.499945 L 37.00021 24.499945 M 37.999495 24.499945 L 39.000064 24.499945 M 40.000634 24.499945 L 40.999919 24.499945 M 42.000488 24.499945 L 46.999482 24.499945 M 49.999906 24.499945 L 51.000475 24.499945 M 1.999547 25.500514 L 3.000117 25.500514 M 6.00054 25.500514 L 6.999825 25.500514 M 10.000249 25.500514 L 13.999958 25.500514 M 15.000527 25.500514 L 15.999812 25.500514 M 17.000382 25.500514 L 17.999667 25.500514 M 19.999521 25.500514 L 24.999799 25.500514 M 28.000223 25.500514 L 30.000077 25.500514 M 31.999932 25.500514 L 33.000501 25.500514 M 35.000356 25.500514 L 37.00021 25.500514 M 40.999919 25.500514 L 42.999773 25.500514 M 46.000197 25.500514 L 46.999482 25.500514 M 49.000621 25.500514 L 51.000475 25.500514 M 1.999547 26.499799 L 3.000117 26.499799 M 3.999402 26.499799 L 6.999825 26.499799 M 8.000395 26.499799 L 8.99968 26.499799 M 10.000249 26.499799 L 12.999388 26.499799 M 15.000527 26.499799 L 15.999812 26.499799 M 17.000382 26.499799 L 19.999521 26.499799 M 21.999375 26.499799 L 22.999945 26.499799 M 24.000514 26.499799 L 24.999799 26.499799 M 26.000369 26.499799 L 26.999654 26.499799 M 28.000223 26.499799 L 28.999508 26.499799 M 30.000077 26.499799 L 30.999362 26.499799 M 31.999932 26.499799 L 33.000501 26.499799 M 33.999786 26.499799 L 35.000356 26.499799 M 35.999641 26.499799 L 37.00021 26.499799 M 37.999495 26.499799 L 40.999919 26.499799 M 42.000488 26.499799 L 42.999773 26.499799 M 44.000342 26.499799 L 44.999627 26.499799 M 46.000197 26.499799 L 49.000621 26.499799 M 3.999402 27.500369 L 6.999825 27.500369 M 10.000249 27.500369 L 12.000104 27.500369 M 15.000527 27.500369 L 15.999812 27.500369 M 17.000382 27.500369 L 19.000236 27.500369 M 19.999521 27.500369 L 21.00009 27.500369 M 21.999375 27.500369 L 24.999799 27.500369 M 28.000223 27.500369 L 30.999362 27.500369 M 31.999932 27.500369 L 33.999786 27.500369 M 35.000356 27.500369 L 35.999641 27.500369 M 37.00021 27.500369 L 37.999495 27.500369 M 40.999919 27.500369 L 42.999773 27.500369 M 46.000197 27.500369 L 46.999482 27.500369 M 49.999906 27.500369 L 51.000475 27.500369 M 3.000117 28.499654 L 4.999971 28.499654 M 6.00054 28.499654 L 12.999388 28.499654 M 13.999958 28.499654 L 15.000527 28.499654 M 15.999812 28.499654 L 17.000382 28.499654 M 17.999667 28.499654 L 21.999375 28.499654 M 24.000514 28.499654 L 28.999508 28.499654 M 30.000077 28.499654 L 30.999362 28.499654 M 31.999932 28.499654 L 33.000501 28.499654 M 33.999786 28.499654 L 37.00021 28.499654 M 37.999495 28.499654 L 39.000064 28.499654 M 40.999919 28.499654 L 46.999482 28.499654 M 48.000051 28.499654 L 49.000621 28.499654 M 3.000117 29.500223 L 3.999402 29.500223 M 4.999971 29.500223 L 8.000395 29.500223 M 8.99968 29.500223 L 10.000249 29.500223 M 10.999534 29.500223 L 12.000104 29.500223 M 13.999958 29.500223 L 15.000527 29.500223 M 15.999812 29.500223 L 19.000236 29.500223 M 19.999521 29.500223 L 21.00009 29.500223 M 21.999375 29.500223 L 24.999799 29.500223 M 28.999508 29.500223 L 30.999362 29.500223 M 31.999932 29.500223 L 33.000501 29.500223 M 33.999786 29.500223 L 35.000356 29.500223 M 35.999641 29.500223 L 37.999495 29.500223 M 42.000488 29.500223 L 44.000342 29.500223 M 46.000197 29.500223 L 51.000475 29.500223 M 3.000117 30.499508 L 3.999402 30.499508 M 8.000395 30.499508 L 8.99968 30.499508 M 10.000249 30.499508 L 10.999534 30.499508 M 15.000527 30.499508 L 19.000236 30.499508 M 21.00009 30.499508 L 21.999375 30.499508 M 22.999945 30.499508 L 24.000514 30.499508 M 26.000369 30.499508 L 26.999654 30.499508 M 28.000223 30.499508 L 30.000077 30.499508 M 31.999932 30.499508 L 33.000501 30.499508 M 33.999786 30.499508 L 35.000356 30.499508 M 37.999495 30.499508 L 39.000064 30.499508 M 40.000634 30.499508 L 44.000342 30.499508 M 48.000051 30.499508 L 49.000621 30.499508 M 1.999547 31.500078 L 3.000117 31.500078 M 3.999402 31.500078 L 4.999971 31.500078 M 12.000104 31.500078 L 15.000527 31.500078 M 17.999667 31.500078 L 19.000236 31.500078 M 19.999521 31.500078 L 21.00009 31.500078 M 22.999945 31.500078 L 24.000514 31.500078 M 24.999799 31.500078 L 26.000369 31.500078 M 26.999654 31.500078 L 28.000223 31.500078 M 30.000077 31.500078 L 30.999362 31.500078 M 31.999932 31.500078 L 33.000501 31.500078 M 33.999786 31.500078 L 35.999641 31.500078 M 37.00021 31.500078 L 39.000064 31.500078 M 40.999919 31.500078 L 42.999773 31.500078 M 44.999627 31.500078 L 46.000197 31.500078 M 46.999482 31.500078 L 49.000621 31.500078 M 49.999906 31.500078 L 51.000475 31.500078 M 1.999547 32.499363 L 3.000117 32.499363 M 3.999402 32.499363 L 4.999971 32.499363 M 6.00054 32.499363 L 8.99968 32.499363 M 12.000104 32.499363 L 13.999958 32.499363 M 15.999812 32.499363 L 17.999667 32.499363 M 21.00009 32.499363 L 21.999375 32.499363 M 22.999945 32.499363 L 24.999799 32.499363 M 26.999654 32.499363 L 31.999932 32.499363 M 33.000501 32.499363 L 33.999786 32.499363 M 35.999641 32.499363 L 37.00021 32.499363 M 37.999495 32.499363 L 40.999919 32.499363 M 42.000488 32.499363 L 42.999773 32.499363 M 44.000342 32.499363 L 44.999627 32.499363 M 46.000197 32.499363 L 48.000051 32.499363 M 1.999547 33.499932 L 3.000117 33.499932 M 3.999402 33.499932 L 6.00054 33.499932 M 8.99968 33.499932 L 10.000249 33.499932 M 10.999534 33.499932 L 12.999388 33.499932 M 13.999958 33.499932 L 15.000527 33.499932 M 17.000382 33.499932 L 17.999667 33.499932 M 19.000236 33.499932 L 21.00009 33.499932 M 22.999945 33.499932 L 24.000514 33.499932 M 24.999799 33.499932 L 26.000369 33.499932 M 31.999932 33.499932 L 33.999786 33.499932 M 35.999641 33.499932 L 37.00021 33.499932 M 37.999495 33.499932 L 39.000064 33.499932 M 44.000342 33.499932 L 44.999627 33.499932 M 46.000197 33.499932 L 46.999482 33.499932 M 49.000621 33.499932 L 49.999906 33.499932 M 1.999547 34.500501 L 3.999402 34.500501 M 4.999971 34.500501 L 6.00054 34.500501 M 6.999825 34.500501 L 10.000249 34.500501 M 10.999534 34.500501 L 12.000104 34.500501 M 12.999388 34.500501 L 15.000527 34.500501 M 17.000382 34.500501 L 17.999667 34.500501 M 19.000236 34.500501 L 19.999521 34.500501 M 21.00009 34.500501 L 24.000514 34.500501 M 24.999799 34.500501 L 26.000369 34.500501 M 28.999508 34.500501 L 30.000077 34.500501 M 30.999362 34.500501 L 33.000501 34.500501 M 35.000356 34.500501 L 35.999641 34.500501 M 37.999495 34.500501 L 39.000064 34.500501 M 40.999919 34.500501 L 42.999773 34.500501 M 44.000342 34.500501 L 44.999627 34.500501 M 46.000197 34.500501 L 49.000621 34.500501 M 49.999906 34.500501 L 51.000475 34.500501 M 3.000117 35.499786 L 6.999825 35.499786 M 8.99968 35.499786 L 10.000249 35.499786 M 15.000527 35.499786 L 15.999812 35.499786 M 17.000382 35.499786 L 19.000236 35.499786 M 19.999521 35.499786 L 21.00009 35.499786 M 21.999375 35.499786 L 26.999654 35.499786 M 31.999932 35.499786 L 33.999786 35.499786 M 35.000356 35.499786 L 35.999641 35.499786 M 37.999495 35.499786 L 39.000064 35.499786 M 40.999919 35.499786 L 42.999773 35.499786 M 44.000342 35.499786 L 44.999627 35.499786 M 49.999906 35.499786 L 51.000475 35.499786 M 3.000117 36.500356 L 6.999825 36.500356 M 8.000395 36.500356 L 10.000249 36.500356 M 10.999534 36.500356 L 12.999388 36.500356 M 15.000527 36.500356 L 15.999812 36.500356 M 17.000382 36.500356 L 17.999667 36.500356 M 19.000236 36.500356 L 19.999521 36.500356 M 21.00009 36.500356 L 21.999375 36.500356 M 22.999945 36.500356 L 24.000514 36.500356 M 24.999799 36.500356 L 26.000369 36.500356 M 28.999508 36.500356 L 30.000077 36.500356 M 30.999362 36.500356 L 33.000501 36.500356 M 35.000356 36.500356 L 35.999641 36.500356 M 37.00021 36.500356 L 39.000064 36.500356 M 40.999919 36.500356 L 44.999627 36.500356 M 1.999547 37.499641 L 6.00054 37.499641 M 6.999825 37.499641 L 8.000395 37.499641 M 8.99968 37.499641 L 12.000104 37.499641 M 13.999958 37.499641 L 15.999812 37.499641 M 17.000382 37.499641 L 19.999521 37.499641 M 21.999375 37.499641 L 24.999799 37.499641 M 26.000369 37.499641 L 28.000223 37.499641 M 28.999508 37.499641 L 30.000077 37.499641 M 33.000501 37.499641 L 35.999641 37.499641 M 37.00021 37.499641 L 40.999919 37.499641 M 44.000342 37.499641 L 44.999627 37.499641 M 46.999482 37.499641 L 48.000051 37.499641 M 49.999906 37.499641 L 51.000475 37.499641 M 1.999547 38.50021 L 6.00054 38.50021 M 8.000395 38.50021 L 10.999534 38.50021 M 12.000104 38.50021 L 12.999388 38.50021 M 15.000527 38.50021 L 17.000382 38.50021 M 17.999667 38.50021 L 19.000236 38.50021 M 22.999945 38.50021 L 24.000514 38.50021 M 26.000369 38.50021 L 28.000223 38.50021 M 28.999508 38.50021 L 30.000077 38.50021 M 30.999362 38.50021 L 31.999932 38.50021 M 33.999786 38.50021 L 35.999641 38.50021 M 39.000064 38.50021 L 40.999919 38.50021 M 42.000488 38.50021 L 42.999773 38.50021 M 44.000342 38.50021 L 46.000197 38.50021 M 46.999482 38.50021 L 48.000051 38.50021 M 49.000621 38.50021 L 51.000475 38.50021 M 1.999547 39.499495 L 3.999402 39.499495 M 6.00054 39.499495 L 6.999825 39.499495 M 8.99968 39.499495 L 10.000249 39.499495 M 10.999534 39.499495 L 12.000104 39.499495 M 17.999667 39.499495 L 21.00009 39.499495 M 24.000514 39.499495 L 24.999799 39.499495 M 26.000369 39.499495 L 28.999508 39.499495 M 30.000077 39.499495 L 30.999362 39.499495 M 31.999932 39.499495 L 35.999641 39.499495 M 37.00021 39.499495 L 37.999495 39.499495 M 39.000064 39.499495 L 42.000488 39.499495 M 42.999773 39.499495 L 44.999627 39.499495 M 46.000197 39.499495 L 49.999906 39.499495 M 3.000117 40.500064 L 3.999402 40.500064 M 6.999825 40.500064 L 8.99968 40.500064 M 10.999534 40.500064 L 12.000104 40.500064 M 12.999388 40.500064 L 15.000527 40.500064 M 17.000382 40.500064 L 17.999667 40.500064 M 19.000236 40.500064 L 19.999521 40.500064 M 21.999375 40.500064 L 24.000514 40.500064 M 24.999799 40.500064 L 26.999654 40.500064 M 31.999932 40.500064 L 33.000501 40.500064 M 35.000356 40.500064 L 35.999641 40.500064 M 37.00021 40.500064 L 40.000634 40.500064 M 42.999773 40.500064 L 46.000197 40.500064 M 48.000051 40.500064 L 49.000621 40.500064 M 3.000117 41.500634 L 6.00054 41.500634 M 10.000249 41.500634 L 10.999534 41.500634 M 12.000104 41.500634 L 13.999958 41.500634 M 19.000236 41.500634 L 19.999521 41.500634 M 24.000514 41.500634 L 26.000369 41.500634 M 28.000223 41.500634 L 28.999508 41.500634 M 30.000077 41.500634 L 33.000501 41.500634 M 33.999786 41.500634 L 35.999641 41.500634 M 37.00021 41.500634 L 39.000064 41.500634 M 40.000634 41.500634 L 42.000488 41.500634 M 46.999482 41.500634 L 48.000051 41.500634 M 49.999906 41.500634 L 51.000475 41.500634 M 1.999547 42.499919 L 4.999971 42.499919 M 8.000395 42.499919 L 8.99968 42.499919 M 10.000249 42.499919 L 12.999388 42.499919 M 15.999812 42.499919 L 17.000382 42.499919 M 17.999667 42.499919 L 19.000236 42.499919 M 21.999375 42.499919 L 22.999945 42.499919 M 24.000514 42.499919 L 30.000077 42.499919 M 33.999786 42.499919 L 35.999641 42.499919 M 37.999495 42.499919 L 40.000634 42.499919 M 40.999919 42.499919 L 46.999482 42.499919 M 49.999906 42.499919 L 51.000475 42.499919 M 10.000249 43.500488 L 10.999534 43.500488 M 12.999388 43.500488 L 13.999958 43.500488 M 17.000382 43.500488 L 17.999667 43.500488 M 21.00009 43.500488 L 21.999375 43.500488 M 24.000514 43.500488 L 24.999799 43.500488 M 28.000223 43.500488 L 28.999508 43.500488 M 33.999786 43.500488 L 37.999495 43.500488 M 39.000064 43.500488 L 40.999919 43.500488 M 42.000488 43.500488 L 42.999773 43.500488 M 46.000197 43.500488 L 51.000475 43.500488 M 1.999547 44.499773 L 8.99968 44.499773 M 10.999534 44.499773 L 12.000104 44.499773 M 13.999958 44.499773 L 17.000382 44.499773 M 17.999667 44.499773 L 21.999375 44.499773 M 22.999945 44.499773 L 24.999799 44.499773 M 26.000369 44.499773 L 26.999654 44.499773 M 28.000223 44.499773 L 30.000077 44.499773 M 35.000356 44.499773 L 35.999641 44.499773 M 40.999919 44.499773 L 42.999773 44.499773 M 44.000342 44.499773 L 44.999627 44.499773 M 46.000197 44.499773 L 46.999482 44.499773 M 1.999547 45.500343 L 3.000117 45.500343 M 8.000395 45.500343 L 8.99968 45.500343 M 10.000249 45.500343 L 12.000104 45.500343 M 15.000527 45.500343 L 17.000382 45.500343 M 17.999667 45.500343 L 21.00009 45.500343 M 21.999375 45.500343 L 24.999799 45.500343 M 28.000223 45.500343 L 30.000077 45.500343 M 30.999362 45.500343 L 33.000501 45.500343 M 35.000356 45.500343 L 35.999641 45.500343 M 37.00021 45.500343 L 39.000064 45.500343 M 40.000634 45.500343 L 42.999773 45.500343 M 46.000197 45.500343 L 51.000475 45.500343 M 1.999547 46.499628 L 3.000117 46.499628 M 3.999402 46.499628 L 6.999825 46.499628 M 8.000395 46.499628 L 8.99968 46.499628 M 10.000249 46.499628 L 10.999534 46.499628 M 12.000104 46.499628 L 13.999958 46.499628 M 15.999812 46.499628 L 17.000382 46.499628 M 17.999667 46.499628 L 19.000236 46.499628 M 24.000514 46.499628 L 28.999508 46.499628 M 30.000077 46.499628 L 30.999362 46.499628 M 31.999932 46.499628 L 33.999786 46.499628 M 35.000356 46.499628 L 35.999641 46.499628 M 37.00021 46.499628 L 40.000634 46.499628 M 42.000488 46.499628 L 46.999482 46.499628 M 49.999906 46.499628 L 51.000475 46.499628 M 1.999547 47.500197 L 3.000117 47.500197 M 3.999402 47.500197 L 6.999825 47.500197 M 8.000395 47.500197 L 8.99968 47.500197 M 10.000249 47.500197 L 15.000527 47.500197 M 15.999812 47.500197 L 17.999667 47.500197 M 19.999521 47.500197 L 24.999799 47.500197 M 35.000356 47.500197 L 37.999495 47.500197 M 40.999919 47.500197 L 42.999773 47.500197 M 44.000342 47.500197 L 44.999627 47.500197 M 48.000051 47.500197 L 49.000621 47.500197 M 49.999906 47.500197 L 51.000475 47.500197 M 1.999547 48.499482 L 3.000117 48.499482 M 3.999402 48.499482 L 6.999825 48.499482 M 8.000395 48.499482 L 8.99968 48.499482 M 10.000249 48.499482 L 10.999534 48.499482 M 12.000104 48.499482 L 12.999388 48.499482 M 13.999958 48.499482 L 15.000527 48.499482 M 21.999375 48.499482 L 24.000514 48.499482 M 24.999799 48.499482 L 28.000223 48.499482 M 28.999508 48.499482 L 30.999362 48.499482 M 31.999932 48.499482 L 33.999786 48.499482 M 35.999641 48.499482 L 37.00021 48.499482 M 39.000064 48.499482 L 40.999919 48.499482 M 44.999627 48.499482 L 49.000621 48.499482 M 49.999906 48.499482 L 51.000475 48.499482 M 1.999547 49.500051 L 3.000117 49.500051 M 8.000395 49.500051 L 8.99968 49.500051 M 12.000104 49.500051 L 12.999388 49.500051 M 15.999812 49.500051 L 19.999521 49.500051 M 21.00009 49.500051 L 24.000514 49.500051 M 24.999799 49.500051 L 26.999654 49.500051 M 28.999508 49.500051 L 30.000077 49.500051 M 30.999362 49.500051 L 31.999932 49.500051 M 35.999641 49.500051 L 37.00021 49.500051 M 37.999495 49.500051 L 40.000634 49.500051 M 40.999919 49.500051 L 42.000488 49.500051 M 44.999627 49.500051 L 46.000197 49.500051 M 46.999482 49.500051 L 48.000051 49.500051 M 49.000621 49.500051 L 51.000475 49.500051 M 1.999547 50.500621 L 8.99968 50.500621 M 10.000249 50.500621 L 10.999534 50.500621 M 12.000104 50.500621 L 12.999388 50.500621 M 19.999521 50.500621 L 21.00009 50.500621 M 22.999945 50.500621 L 24.999799 50.500621 M 26.000369 50.500621 L 28.000223 50.500621 M 30.000077 50.500621 L 30.999362 50.500621 M 33.000501 50.500621 L 39.000064 50.500621 M 42.000488 50.500621 L 44.000342 50.500621 M 46.000197 50.500621 L 49.000621 50.500621 M 49.999906 50.500621 L 51.000475 50.500621 " stroke="#000000" stroke-width="1" stroke-opacity="1" stroke-miterlimit="4"/><g fill="#ff5757" fill-opacity="1"><g transform="translate(73.913786, 41.933329)"><g><path d="M 4.46875 -6.984375 L 5.390625 -6.984375 C 6.242188 -6.984375 6.882812 -7.15625 7.3125 -7.5 C 7.738281 -7.84375 7.953125 -8.335938 7.953125 -8.984375 C 7.953125 -9.640625 7.773438 -10.125 7.421875 -10.4375 C 7.066406 -10.75 6.503906 -10.90625 5.734375 -10.90625 L 4.46875 -10.90625 Z M 10.78125 -9.09375 C 10.78125 -7.664062 10.335938 -6.578125 9.453125 -5.828125 C 8.566406 -5.078125 7.300781 -4.703125 5.65625 -4.703125 L 4.46875 -4.703125 L 4.46875 0 L 1.65625 0 L 1.65625 -13.203125 L 5.875 -13.203125 C 7.476562 -13.203125 8.695312 -12.859375 9.53125 -12.171875 C 10.363281 -11.484375 10.78125 -10.457031 10.78125 -9.09375 Z M 10.78125 -9.09375 "/></g></g></g><g fill="#ff5757" fill-opacity="1"><g transform="translate(85.522609, 41.933329)"><g><path d="M 1.65625 0 L 1.65625 -13.203125 L 4.46875 -13.203125 L 4.46875 0 Z M 1.65625 0 "/></g></g></g><g fill="#ff5757" fill-opacity="1"><g transform="translate(91.642968, 41.933329)"><g><path d="M 12.34375 0 L 9.140625 0 L 6.078125 -5 L 3 0 L 0 0 L 4.375 -6.8125 L 0.28125 -13.203125 L 3.375 -13.203125 L 6.21875 -8.453125 L 9 -13.203125 L 12.015625 -13.203125 L 7.875 -6.65625 Z M 12.34375 0 "/></g></g></g><g fill="#ecb365" fill-opacity="1"><g transform="translate(9.767396, 10.833197)"><g><path d="M 3.140625 -3.484375 L 5.59375 -3.484375 L 5.59375 -0.265625 C 5.195312 -0.140625 4.820312 -0.0507812 4.46875 0 C 4.113281 0.0507812 3.753906 0.078125 3.390625 0.078125 C 2.453125 0.078125 1.734375 -0.191406 1.234375 -0.734375 C 0.742188 -1.285156 0.5 -2.078125 0.5 -3.109375 C 0.5 -4.109375 0.785156 -4.890625 1.359375 -5.453125 C 1.929688 -6.015625 2.726562 -6.296875 3.75 -6.296875 C 4.382812 -6.296875 5 -6.164062 5.59375 -5.90625 L 5.15625 -4.859375 C 4.695312 -5.085938 4.222656 -5.203125 3.734375 -5.203125 C 3.171875 -5.203125 2.71875 -5.007812 2.375 -4.625 C 2.03125 -4.238281 1.859375 -3.722656 1.859375 -3.078125 C 1.859375 -2.410156 1.992188 -1.898438 2.265625 -1.546875 C 2.546875 -1.191406 2.945312 -1.015625 3.46875 -1.015625 C 3.75 -1.015625 4.03125 -1.039062 4.3125 -1.09375 L 4.3125 -2.390625 L 3.140625 -2.390625 Z M 3.140625 -3.484375 "/></g></g><g transform="translate(16.058041, 10.833197)"><g><path d="M 1.703125 -2.375 C 1.703125 -1.90625 1.78125 -1.550781 1.9375 -1.3125 C 2.09375 -1.070312 2.34375 -0.953125 2.6875 -0.953125 C 3.039062 -0.953125 3.289062 -1.070312 3.4375 -1.3125 C 3.59375 -1.550781 3.671875 -1.90625 3.671875 -2.375 C 3.671875 -2.84375 3.59375 -3.191406 3.4375 -3.421875 C 3.28125 -3.660156 3.03125 -3.78125 2.6875 -3.78125 C 2.34375 -3.78125 2.09375 -3.664062 1.9375 -3.4375 C 1.78125 -3.207031 1.703125 -2.851562 1.703125 -2.375 Z M 4.984375 -2.375 C 4.984375 -1.601562 4.78125 -1 4.375 -0.5625 C 3.96875 -0.132812 3.398438 0.078125 2.671875 0.078125 C 2.222656 0.078125 1.820312 -0.0195312 1.46875 -0.21875 C 1.125 -0.414062 0.859375 -0.703125 0.671875 -1.078125 C 0.484375 -1.453125 0.390625 -1.882812 0.390625 -2.375 C 0.390625 -3.15625 0.59375 -3.757812 1 -4.1875 C 1.40625 -4.613281 1.972656 -4.828125 2.703125 -4.828125 C 3.160156 -4.828125 3.5625 -4.726562 3.90625 -4.53125 C 4.25 -4.332031 4.515625 -4.046875 4.703125 -3.671875 C 4.890625 -3.304688 4.984375 -2.875 4.984375 -2.375 Z M 4.984375 -2.375 "/></g></g><g transform="translate(21.436691, 10.833197)"><g><path d="M 3.984375 -1.40625 C 3.984375 -0.914062 3.8125 -0.546875 3.46875 -0.296875 C 3.132812 -0.046875 2.632812 0.078125 1.96875 0.078125 C 1.625 0.078125 1.328125 0.0507812 1.078125 0 C 0.835938 -0.0390625 0.613281 -0.101562 0.40625 -0.1875 L 0.40625 -1.265625 C 0.644531 -1.148438 0.910156 -1.050781 1.203125 -0.96875 C 1.503906 -0.894531 1.769531 -0.859375 2 -0.859375 C 2.46875 -0.859375 2.703125 -0.992188 2.703125 -1.265625 C 2.703125 -1.367188 2.671875 -1.453125 2.609375 -1.515625 C 2.554688 -1.578125 2.453125 -1.648438 2.296875 -1.734375 C 2.140625 -1.816406 1.9375 -1.910156 1.6875 -2.015625 C 1.320312 -2.171875 1.050781 -2.3125 0.875 -2.4375 C 0.707031 -2.570312 0.582031 -2.722656 0.5 -2.890625 C 0.425781 -3.054688 0.390625 -3.265625 0.390625 -3.515625 C 0.390625 -3.929688 0.550781 -4.253906 0.875 -4.484375 C 1.207031 -4.710938 1.671875 -4.828125 2.265625 -4.828125 C 2.835938 -4.828125 3.394531 -4.703125 3.9375 -4.453125 L 3.546875 -3.53125 C 3.304688 -3.625 3.082031 -3.703125 2.875 -3.765625 C 2.675781 -3.835938 2.46875 -3.875 2.25 -3.875 C 1.863281 -3.875 1.671875 -3.769531 1.671875 -3.5625 C 1.671875 -3.445312 1.734375 -3.347656 1.859375 -3.265625 C 1.984375 -3.179688 2.253906 -3.054688 2.671875 -2.890625 C 3.035156 -2.734375 3.300781 -2.585938 3.46875 -2.453125 C 3.644531 -2.328125 3.773438 -2.179688 3.859375 -2.015625 C 3.941406 -1.847656 3.984375 -1.644531 3.984375 -1.40625 Z M 3.984375 -1.40625 "/></g></g><g transform="translate(25.754881, 10.833197)"><g><path d="M 2.671875 -0.953125 C 2.898438 -0.953125 3.171875 -1 3.484375 -1.09375 L 3.484375 -0.125 C 3.160156 0.0078125 2.765625 0.078125 2.296875 0.078125 C 1.785156 0.078125 1.410156 -0.0507812 1.171875 -0.3125 C 0.929688 -0.570312 0.8125 -0.960938 0.8125 -1.484375 L 0.8125 -3.765625 L 0.203125 -3.765625 L 0.203125 -4.3125 L 0.90625 -4.75 L 1.28125 -5.75 L 2.109375 -5.75 L 2.109375 -4.75 L 3.4375 -4.75 L 3.4375 -3.765625 L 2.109375 -3.765625 L 2.109375 -1.484375 C 2.109375 -1.296875 2.160156 -1.160156 2.265625 -1.078125 C 2.367188 -0.992188 2.503906 -0.953125 2.671875 -0.953125 Z M 2.671875 -0.953125 "/></g></g><g transform="translate(29.525874, 10.833197)"><g><path d="M 1.703125 -2.375 C 1.703125 -1.90625 1.78125 -1.550781 1.9375 -1.3125 C 2.09375 -1.070312 2.34375 -0.953125 2.6875 -0.953125 C 3.039062 -0.953125 3.289062 -1.070312 3.4375 -1.3125 C 3.59375 -1.550781 3.671875 -1.90625 3.671875 -2.375 C 3.671875 -2.84375 3.59375 -3.191406 3.4375 -3.421875 C 3.28125 -3.660156 3.03125 -3.78125 2.6875 -3.78125 C 2.34375 -3.78125 2.09375 -3.664062 1.9375 -3.4375 C 1.78125 -3.207031 1.703125 -2.851562 1.703125 -2.375 Z M 4.984375 -2.375 C 4.984375 -1.601562 4.78125 -1 4.375 -0.5625 C 3.96875 -0.132812 3.398438 0.078125 2.671875 0.078125 C 2.222656 0.078125 1.820312 -0.0195312 1.46875 -0.21875 C 1.125 -0.414062 0.859375 -0.703125 0.671875 -1.078125 C 0.484375 -1.453125 0.390625 -1.882812 0.390625 -2.375 C 0.390625 -3.15625 0.59375 -3.757812 1 -4.1875 C 1.40625 -4.613281 1.972656 -4.828125 2.703125 -4.828125 C 3.160156 -4.828125 3.5625 -4.726562 3.90625 -4.53125 C 4.25 -4.332031 4.515625 -4.046875 4.703125 -3.671875 C 4.890625 -3.304688 4.984375 -2.875 4.984375 -2.375 Z M 4.984375 -2.375 "/></g></g><g transform="translate(34.904524, 10.833197)"><g><path d="M 4.03125 0 L 3.859375 -0.609375 L 3.796875 -0.609375 C 3.660156 -0.390625 3.460938 -0.21875 3.203125 -0.09375 C 2.953125 0.0195312 2.664062 0.078125 2.34375 0.078125 C 1.78125 0.078125 1.359375 -0.0664062 1.078125 -0.359375 C 0.796875 -0.660156 0.65625 -1.09375 0.65625 -1.65625 L 0.65625 -4.75 L 1.953125 -4.75 L 1.953125 -1.96875 C 1.953125 -1.625 2.007812 -1.367188 2.125 -1.203125 C 2.25 -1.035156 2.441406 -0.953125 2.703125 -0.953125 C 3.066406 -0.953125 3.328125 -1.070312 3.484375 -1.3125 C 3.648438 -1.550781 3.734375 -1.953125 3.734375 -2.515625 L 3.734375 -4.75 L 5.03125 -4.75 L 5.03125 0 Z M 4.03125 0 "/></g></g><g transform="translate(40.614037, 10.833197)"><g/></g><g transform="translate(42.870695, 10.833197)"><g><path d="M 2.1875 0.078125 C 1.625 0.078125 1.179688 -0.132812 0.859375 -0.5625 C 0.546875 -1 0.390625 -1.597656 0.390625 -2.359375 C 0.390625 -3.140625 0.550781 -3.742188 0.875 -4.171875 C 1.195312 -4.609375 1.644531 -4.828125 2.21875 -4.828125 C 2.8125 -4.828125 3.265625 -4.597656 3.578125 -4.140625 L 3.625 -4.140625 C 3.5625 -4.492188 3.53125 -4.804688 3.53125 -5.078125 L 3.53125 -6.59375 L 4.828125 -6.59375 L 4.828125 0 L 3.828125 0 L 3.578125 -0.609375 L 3.53125 -0.609375 C 3.226562 -0.148438 2.78125 0.078125 2.1875 0.078125 Z M 2.640625 -0.953125 C 2.960938 -0.953125 3.203125 -1.046875 3.359375 -1.234375 C 3.515625 -1.421875 3.597656 -1.75 3.609375 -2.21875 L 3.609375 -2.359375 C 3.609375 -2.867188 3.53125 -3.234375 3.375 -3.453125 C 3.21875 -3.671875 2.960938 -3.78125 2.609375 -3.78125 C 2.328125 -3.78125 2.101562 -3.65625 1.9375 -3.40625 C 1.78125 -3.164062 1.703125 -2.8125 1.703125 -2.34375 C 1.703125 -1.875 1.78125 -1.523438 1.9375 -1.296875 C 2.101562 -1.066406 2.335938 -0.953125 2.640625 -0.953125 Z M 2.640625 -0.953125 "/></g></g><g transform="translate(48.368116, 10.833197)"><g><path d="M 1.703125 -2.375 C 1.703125 -1.90625 1.78125 -1.550781 1.9375 -1.3125 C 2.09375 -1.070312 2.34375 -0.953125 2.6875 -0.953125 C 3.039062 -0.953125 3.289062 -1.070312 3.4375 -1.3125 C 3.59375 -1.550781 3.671875 -1.90625 3.671875 -2.375 C 3.671875 -2.84375 3.59375 -3.191406 3.4375 -3.421875 C 3.28125 -3.660156 3.03125 -3.78125 2.6875 -3.78125 C 2.34375 -3.78125 2.09375 -3.664062 1.9375 -3.4375 C 1.78125 -3.207031 1.703125 -2.851562 1.703125 -2.375 Z M 4.984375 -2.375 C 4.984375 -1.601562 4.78125 -1 4.375 -0.5625 C 3.96875 -0.132812 3.398438 0.078125 2.671875 0.078125 C 2.222656 0.078125 1.820312 -0.0195312 1.46875 -0.21875 C 1.125 -0.414062 0.859375 -0.703125 0.671875 -1.078125 C 0.484375 -1.453125 0.390625 -1.882812 0.390625 -2.375 C 0.390625 -3.15625 0.59375 -3.757812 1 -4.1875 C 1.40625 -4.613281 1.972656 -4.828125 2.703125 -4.828125 C 3.160156 -4.828125 3.5625 -4.726562 3.90625 -4.53125 C 4.25 -4.332031 4.515625 -4.046875 4.703125 -3.671875 C 4.890625 -3.304688 4.984375 -2.875 4.984375 -2.375 Z M 4.984375 -2.375 "/></g></g><g transform="translate(53.746766, 10.833197)"><g/></g><g transform="translate(56.003423, 10.833197)"><g><path d="M 3.6875 0 L 3.4375 -0.640625 L 3.40625 -0.640625 C 3.1875 -0.367188 2.960938 -0.179688 2.734375 -0.078125 C 2.503906 0.0234375 2.203125 0.078125 1.828125 0.078125 C 1.378906 0.078125 1.019531 -0.0507812 0.75 -0.3125 C 0.488281 -0.570312 0.359375 -0.941406 0.359375 -1.421875 C 0.359375 -1.921875 0.535156 -2.289062 0.890625 -2.53125 C 1.242188 -2.769531 1.773438 -2.898438 2.484375 -2.921875 L 3.3125 -2.953125 L 3.3125 -3.15625 C 3.3125 -3.632812 3.066406 -3.875 2.578125 -3.875 C 2.191406 -3.875 1.742188 -3.757812 1.234375 -3.53125 L 0.8125 -4.40625 C 1.351562 -4.695312 1.957031 -4.84375 2.625 -4.84375 C 3.257812 -4.84375 3.742188 -4.703125 4.078125 -4.421875 C 4.421875 -4.148438 4.59375 -3.726562 4.59375 -3.15625 L 4.59375 0 Z M 3.3125 -2.203125 L 2.8125 -2.1875 C 2.4375 -2.164062 2.15625 -2.09375 1.96875 -1.96875 C 1.78125 -1.851562 1.6875 -1.664062 1.6875 -1.40625 C 1.6875 -1.039062 1.898438 -0.859375 2.328125 -0.859375 C 2.617188 -0.859375 2.851562 -0.941406 3.03125 -1.109375 C 3.21875 -1.285156 3.3125 -1.519531 3.3125 -1.8125 Z M 3.3125 -2.203125 "/></g></g><g transform="translate(61.250576, 10.833197)"><g><path d="M 3.28125 0.078125 C 2.726562 0.078125 2.289062 -0.117188 1.96875 -0.515625 L 1.90625 -0.515625 C 1.945312 -0.117188 1.96875 0.109375 1.96875 0.171875 L 1.96875 2.09375 L 0.671875 2.09375 L 0.671875 -4.75 L 1.734375 -4.75 L 1.90625 -4.125 L 1.96875 -4.125 C 2.269531 -4.59375 2.71875 -4.828125 3.3125 -4.828125 C 3.875 -4.828125 4.3125 -4.609375 4.625 -4.171875 C 4.945312 -3.742188 5.109375 -3.144531 5.109375 -2.375 C 5.109375 -1.875 5.03125 -1.4375 4.875 -1.0625 C 4.726562 -0.6875 4.519531 -0.398438 4.25 -0.203125 C 3.976562 -0.015625 3.65625 0.078125 3.28125 0.078125 Z M 2.90625 -3.796875 C 2.582031 -3.796875 2.347656 -3.695312 2.203125 -3.5 C 2.054688 -3.300781 1.976562 -2.976562 1.96875 -2.53125 L 1.96875 -2.390625 C 1.96875 -1.878906 2.039062 -1.515625 2.1875 -1.296875 C 2.34375 -1.078125 2.585938 -0.96875 2.921875 -0.96875 C 3.492188 -0.96875 3.78125 -1.441406 3.78125 -2.390625 C 3.78125 -2.859375 3.707031 -3.207031 3.5625 -3.4375 C 3.425781 -3.675781 3.207031 -3.796875 2.90625 -3.796875 Z M 2.90625 -3.796875 "/></g></g><g transform="translate(66.747997, 10.833197)"><g><path d="M 3.28125 0.078125 C 2.726562 0.078125 2.289062 -0.117188 1.96875 -0.515625 L 1.90625 -0.515625 C 1.945312 -0.117188 1.96875 0.109375 1.96875 0.171875 L 1.96875 2.09375 L 0.671875 2.09375 L 0.671875 -4.75 L 1.734375 -4.75 L 1.90625 -4.125 L 1.96875 -4.125 C 2.269531 -4.59375 2.71875 -4.828125 3.3125 -4.828125 C 3.875 -4.828125 4.3125 -4.609375 4.625 -4.171875 C 4.945312 -3.742188 5.109375 -3.144531 5.109375 -2.375 C 5.109375 -1.875 5.03125 -1.4375 4.875 -1.0625 C 4.726562 -0.6875 4.519531 -0.398438 4.25 -0.203125 C 3.976562 -0.015625 3.65625 0.078125 3.28125 0.078125 Z M 2.90625 -3.796875 C 2.582031 -3.796875 2.347656 -3.695312 2.203125 -3.5 C 2.054688 -3.300781 1.976562 -2.976562 1.96875 -2.53125 L 1.96875 -2.390625 C 1.96875 -1.878906 2.039062 -1.515625 2.1875 -1.296875 C 2.34375 -1.078125 2.585938 -0.96875 2.921875 -0.96875 C 3.492188 -0.96875 3.78125 -1.441406 3.78125 -2.390625 C 3.78125 -2.859375 3.707031 -3.207031 3.5625 -3.4375 C 3.425781 -3.675781 3.207031 -3.796875 2.90625 -3.796875 Z M 2.90625 -3.796875 "/></g></g><g transform="translate(72.245418, 10.833197)"><g><path d="M 1.171875 -2.0625 L 1.171875 -2.375 C 1.171875 -2.644531 1.226562 -2.878906 1.34375 -3.078125 C 1.457031 -3.273438 1.671875 -3.488281 1.984375 -3.71875 C 2.273438 -3.925781 2.46875 -4.097656 2.5625 -4.234375 C 2.65625 -4.367188 2.703125 -4.519531 2.703125 -4.6875 C 2.703125 -4.863281 2.632812 -5 2.5 -5.09375 C 2.363281 -5.195312 2.175781 -5.25 1.9375 -5.25 C 1.507812 -5.25 1.023438 -5.109375 0.484375 -4.828125 L 0.03125 -5.765625 C 0.65625 -6.117188 1.320312 -6.296875 2.03125 -6.296875 C 2.613281 -6.296875 3.078125 -6.15625 3.421875 -5.875 C 3.765625 -5.59375 3.9375 -5.21875 3.9375 -4.75 C 3.9375 -4.4375 3.863281 -4.164062 3.71875 -3.9375 C 3.582031 -3.71875 3.316406 -3.46875 2.921875 -3.1875 C 2.648438 -2.976562 2.476562 -2.820312 2.40625 -2.71875 C 2.332031 -2.613281 2.296875 -2.476562 2.296875 -2.3125 L 2.296875 -2.0625 Z M 1.03125 -0.609375 C 1.03125 -0.847656 1.09375 -1.023438 1.21875 -1.140625 C 1.351562 -1.265625 1.539062 -1.328125 1.78125 -1.328125 C 2.019531 -1.328125 2.203125 -1.265625 2.328125 -1.140625 C 2.453125 -1.015625 2.515625 -0.835938 2.515625 -0.609375 C 2.515625 -0.378906 2.445312 -0.203125 2.3125 -0.078125 C 2.1875 0.046875 2.007812 0.109375 1.78125 0.109375 C 1.539062 0.109375 1.351562 0.046875 1.21875 -0.078125 C 1.09375 -0.203125 1.03125 -0.378906 1.03125 -0.609375 Z M 1.03125 -0.609375 "/></g></g><g transform="translate(76.389693, 10.833197)"><g/></g><g transform="translate(78.646351, 10.833197)"><g><path d="M 4.578125 0 L 4.125 -1.46875 L 1.859375 -1.46875 L 1.421875 0 L 0 0 L 2.1875 -6.234375 L 3.796875 -6.234375 L 6 0 Z M 3.8125 -2.578125 C 3.394531 -3.910156 3.160156 -4.664062 3.109375 -4.84375 C 3.054688 -5.019531 3.019531 -5.160156 3 -5.265625 C 2.90625 -4.898438 2.640625 -4.003906 2.203125 -2.578125 Z M 3.8125 -2.578125 "/></g></g><g transform="translate(84.640067, 10.833197)"><g><path d="M 0.296875 2.09375 C -0.0351562 2.09375 -0.320312 2.054688 -0.5625 1.984375 L -0.5625 0.96875 C -0.363281 1.019531 -0.160156 1.046875 0.046875 1.046875 C 0.265625 1.046875 0.421875 0.984375 0.515625 0.859375 C 0.617188 0.734375 0.671875 0.554688 0.671875 0.328125 L 0.671875 -4.75 L 1.96875 -4.75 L 1.96875 0.515625 C 1.96875 1.015625 1.820312 1.398438 1.53125 1.671875 C 1.238281 1.953125 0.828125 2.09375 0.296875 2.09375 Z M 0.625 -5.96875 C 0.625 -6.382812 0.859375 -6.59375 1.328125 -6.59375 C 1.796875 -6.59375 2.03125 -6.382812 2.03125 -5.96875 C 2.03125 -5.769531 1.972656 -5.613281 1.859375 -5.5 C 1.742188 -5.382812 1.566406 -5.328125 1.328125 -5.328125 C 0.859375 -5.328125 0.625 -5.539062 0.625 -5.96875 Z M 0.625 -5.96875 "/></g></g><g transform="translate(87.291215, 10.833197)"><g><path d="M 4.03125 0 L 3.859375 -0.609375 L 3.796875 -0.609375 C 3.660156 -0.390625 3.460938 -0.21875 3.203125 -0.09375 C 2.953125 0.0195312 2.664062 0.078125 2.34375 0.078125 C 1.78125 0.078125 1.359375 -0.0664062 1.078125 -0.359375 C 0.796875 -0.660156 0.65625 -1.09375 0.65625 -1.65625 L 0.65625 -4.75 L 1.953125 -4.75 L 1.953125 -1.96875 C 1.953125 -1.625 2.007812 -1.367188 2.125 -1.203125 C 2.25 -1.035156 2.441406 -0.953125 2.703125 -0.953125 C 3.066406 -0.953125 3.328125 -1.070312 3.484375 -1.3125 C 3.648438 -1.550781 3.734375 -1.953125 3.734375 -2.515625 L 3.734375 -4.75 L 5.03125 -4.75 L 5.03125 0 Z M 4.03125 0 "/></g></g><g transform="translate(93.000728, 10.833197)"><g><path d="M 2.1875 0.078125 C 1.625 0.078125 1.179688 -0.132812 0.859375 -0.5625 C 0.546875 -1 0.390625 -1.597656 0.390625 -2.359375 C 0.390625 -3.140625 0.550781 -3.742188 0.875 -4.171875 C 1.195312 -4.609375 1.644531 -4.828125 2.21875 -4.828125 C 2.8125 -4.828125 3.265625 -4.597656 3.578125 -4.140625 L 3.625 -4.140625 C 3.5625 -4.492188 3.53125 -4.804688 3.53125 -5.078125 L 3.53125 -6.59375 L 4.828125 -6.59375 L 4.828125 0 L 3.828125 0 L 3.578125 -0.609375 L 3.53125 -0.609375 C 3.226562 -0.148438 2.78125 0.078125 2.1875 0.078125 Z M 2.640625 -0.953125 C 2.960938 -0.953125 3.203125 -1.046875 3.359375 -1.234375 C 3.515625 -1.421875 3.597656 -1.75 3.609375 -2.21875 L 3.609375 -2.359375 C 3.609375 -2.867188 3.53125 -3.234375 3.375 -3.453125 C 3.21875 -3.671875 2.960938 -3.78125 2.609375 -3.78125 C 2.328125 -3.78125 2.101562 -3.65625 1.9375 -3.40625 C 1.78125 -3.164062 1.703125 -2.8125 1.703125 -2.34375 C 1.703125 -1.875 1.78125 -1.523438 1.9375 -1.296875 C 2.101562 -1.066406 2.335938 -0.953125 2.640625 -0.953125 Z M 2.640625 -0.953125 "/></g></g><g transform="translate(98.498149, 10.833197)"><g><path d="M 2.640625 -3.90625 C 2.367188 -3.90625 2.15625 -3.816406 2 -3.640625 C 1.84375 -3.472656 1.753906 -3.226562 1.734375 -2.90625 L 3.546875 -2.90625 C 3.535156 -3.226562 3.445312 -3.472656 3.28125 -3.640625 C 3.125 -3.816406 2.910156 -3.90625 2.640625 -3.90625 Z M 2.828125 0.078125 C 2.066406 0.078125 1.46875 -0.128906 1.03125 -0.546875 C 0.601562 -0.960938 0.390625 -1.5625 0.390625 -2.34375 C 0.390625 -3.132812 0.585938 -3.742188 0.984375 -4.171875 C 1.378906 -4.609375 1.929688 -4.828125 2.640625 -4.828125 C 3.304688 -4.828125 3.828125 -4.632812 4.203125 -4.25 C 4.578125 -3.875 4.765625 -3.347656 4.765625 -2.671875 L 4.765625 -2.046875 L 1.703125 -2.046875 C 1.710938 -1.679688 1.816406 -1.394531 2.015625 -1.1875 C 2.222656 -0.976562 2.515625 -0.875 2.890625 -0.875 C 3.171875 -0.875 3.4375 -0.90625 3.6875 -0.96875 C 3.945312 -1.03125 4.21875 -1.125 4.5 -1.25 L 4.5 -0.25 C 4.269531 -0.132812 4.023438 -0.0507812 3.765625 0 C 3.503906 0.0507812 3.191406 0.078125 2.828125 0.078125 Z M 2.828125 0.078125 "/></g></g><g transform="translate(103.630773, 10.833197)"><g><path d="M 0.265625 -1.796875 L 0.265625 -2.859375 L 2.53125 -2.859375 L 2.53125 -1.796875 Z M 0.265625 -1.796875 "/></g></g><g transform="translate(106.426143, 10.833197)"><g><path d="M 5.0625 0 L 3.765625 0 L 3.765625 -2.765625 C 3.765625 -3.109375 3.703125 -3.363281 3.578125 -3.53125 C 3.453125 -3.707031 3.257812 -3.796875 3 -3.796875 C 2.632812 -3.796875 2.367188 -3.675781 2.203125 -3.4375 C 2.046875 -3.195312 1.96875 -2.796875 1.96875 -2.234375 L 1.96875 0 L 0.671875 0 L 0.671875 -4.75 L 1.671875 -4.75 L 1.84375 -4.140625 L 1.90625 -4.140625 C 2.050781 -4.367188 2.25 -4.539062 2.5 -4.65625 C 2.757812 -4.769531 3.050781 -4.828125 3.375 -4.828125 C 3.925781 -4.828125 4.34375 -4.675781 4.625 -4.375 C 4.914062 -4.082031 5.0625 -3.65625 5.0625 -3.09375 Z M 5.0625 0 "/></g></g><g transform="translate(112.135656, 10.833197)"><g><path d="M 1.703125 -2.375 C 1.703125 -1.90625 1.78125 -1.550781 1.9375 -1.3125 C 2.09375 -1.070312 2.34375 -0.953125 2.6875 -0.953125 C 3.039062 -0.953125 3.289062 -1.070312 3.4375 -1.3125 C 3.59375 -1.550781 3.671875 -1.90625 3.671875 -2.375 C 3.671875 -2.84375 3.59375 -3.191406 3.4375 -3.421875 C 3.28125 -3.660156 3.03125 -3.78125 2.6875 -3.78125 C 2.34375 -3.78125 2.09375 -3.664062 1.9375 -3.4375 C 1.78125 -3.207031 1.703125 -2.851562 1.703125 -2.375 Z M 4.984375 -2.375 C 4.984375 -1.601562 4.78125 -1 4.375 -0.5625 C 3.96875 -0.132812 3.398438 0.078125 2.671875 0.078125 C 2.222656 0.078125 1.820312 -0.0195312 1.46875 -0.21875 C 1.125 -0.414062 0.859375 -0.703125 0.671875 -1.078125 C 0.484375 -1.453125 0.390625 -1.882812 0.390625 -2.375 C 0.390625 -3.15625 0.59375 -3.757812 1 -4.1875 C 1.40625 -4.613281 1.972656 -4.828125 2.703125 -4.828125 C 3.160156 -4.828125 3.5625 -4.726562 3.90625 -4.53125 C 4.25 -4.332031 4.515625 -4.046875 4.703125 -3.671875 C 4.890625 -3.304688 4.984375 -2.875 4.984375 -2.375 Z M 4.984375 -2.375 "/></g></g><g transform="translate(117.514306, 10.833197)"><g><path d="M 3.984375 -1.40625 C 3.984375 -0.914062 3.8125 -0.546875 3.46875 -0.296875 C 3.132812 -0.046875 2.632812 0.078125 1.96875 0.078125 C 1.625 0.078125 1.328125 0.0507812 1.078125 0 C 0.835938 -0.0390625 0.613281 -0.101562 0.40625 -0.1875 L 0.40625 -1.265625 C 0.644531 -1.148438 0.910156 -1.050781 1.203125 -0.96875 C 1.503906 -0.894531 1.769531 -0.859375 2 -0.859375 C 2.46875 -0.859375 2.703125 -0.992188 2.703125 -1.265625 C 2.703125 -1.367188 2.671875 -1.453125 2.609375 -1.515625 C 2.554688 -1.578125 2.453125 -1.648438 2.296875 -1.734375 C 2.140625 -1.816406 1.9375 -1.910156 1.6875 -2.015625 C 1.320312 -2.171875 1.050781 -2.3125 0.875 -2.4375 C 0.707031 -2.570312 0.582031 -2.722656 0.5 -2.890625 C 0.425781 -3.054688 0.390625 -3.265625 0.390625 -3.515625 C 0.390625 -3.929688 0.550781 -4.253906 0.875 -4.484375 C 1.207031 -4.710938 1.671875 -4.828125 2.265625 -4.828125 C 2.835938 -4.828125 3.394531 -4.703125 3.9375 -4.453125 L 3.546875 -3.53125 C 3.304688 -3.625 3.082031 -3.703125 2.875 -3.765625 C 2.675781 -3.835938 2.46875 -3.875 2.25 -3.875 C 1.863281 -3.875 1.671875 -3.769531 1.671875 -3.5625 C 1.671875 -3.445312 1.734375 -3.347656 1.859375 -3.265625 C 1.984375 -3.179688 2.253906 -3.054688 2.671875 -2.890625 C 3.035156 -2.734375 3.300781 -2.585938 3.46875 -2.453125 C 3.644531 -2.328125 3.773438 -2.179688 3.859375 -2.015625 C 3.941406 -1.847656 3.984375 -1.644531 3.984375 -1.40625 Z M 3.984375 -1.40625 "/></g></g><g transform="translate(121.832497, 10.833197)"><g/></g><g transform="translate(124.089154, 10.833197)"><g><path d="M 3.6875 0 L 3.4375 -0.640625 L 3.40625 -0.640625 C 3.1875 -0.367188 2.960938 -0.179688 2.734375 -0.078125 C 2.503906 0.0234375 2.203125 0.078125 1.828125 0.078125 C 1.378906 0.078125 1.019531 -0.0507812 0.75 -0.3125 C 0.488281 -0.570312 0.359375 -0.941406 0.359375 -1.421875 C 0.359375 -1.921875 0.535156 -2.289062 0.890625 -2.53125 C 1.242188 -2.769531 1.773438 -2.898438 2.484375 -2.921875 L 3.3125 -2.953125 L 3.3125 -3.15625 C 3.3125 -3.632812 3.066406 -3.875 2.578125 -3.875 C 2.191406 -3.875 1.742188 -3.757812 1.234375 -3.53125 L 0.8125 -4.40625 C 1.351562 -4.695312 1.957031 -4.84375 2.625 -4.84375 C 3.257812 -4.84375 3.742188 -4.703125 4.078125 -4.421875 C 4.421875 -4.148438 4.59375 -3.726562 4.59375 -3.15625 L 4.59375 0 Z M 3.3125 -2.203125 L 2.8125 -2.1875 C 2.4375 -2.164062 2.15625 -2.09375 1.96875 -1.96875 C 1.78125 -1.851562 1.6875 -1.664062 1.6875 -1.40625 C 1.6875 -1.039062 1.898438 -0.859375 2.328125 -0.859375 C 2.617188 -0.859375 2.851562 -0.941406 3.03125 -1.109375 C 3.21875 -1.285156 3.3125 -1.519531 3.3125 -1.8125 Z M 3.3125 -2.203125 "/></g></g><g transform="translate(129.336307, 10.833197)"><g/></g><g transform="translate(131.592964, 10.833197)"><g><path d="M 2.609375 0.078125 C 1.128906 0.078125 0.390625 -0.726562 0.390625 -2.34375 C 0.390625 -3.15625 0.585938 -3.769531 0.984375 -4.1875 C 1.390625 -4.613281 1.96875 -4.828125 2.71875 -4.828125 C 3.269531 -4.828125 3.757812 -4.722656 4.1875 -4.515625 L 3.8125 -3.515625 C 3.613281 -3.585938 3.425781 -3.648438 3.25 -3.703125 C 3.070312 -3.753906 2.894531 -3.78125 2.71875 -3.78125 C 2.039062 -3.78125 1.703125 -3.304688 1.703125 -2.359375 C 1.703125 -1.429688 2.039062 -0.96875 2.71875 -0.96875 C 2.96875 -0.96875 3.195312 -1 3.40625 -1.0625 C 3.625 -1.125 3.835938 -1.226562 4.046875 -1.375 L 4.046875 -0.265625 C 3.835938 -0.128906 3.625 -0.0390625 3.40625 0 C 3.195312 0.0507812 2.929688 0.078125 2.609375 0.078125 Z M 2.609375 0.078125 "/></g></g><g transform="translate(136.059619, 10.833197)"><g><path d="M 1.703125 -2.375 C 1.703125 -1.90625 1.78125 -1.550781 1.9375 -1.3125 C 2.09375 -1.070312 2.34375 -0.953125 2.6875 -0.953125 C 3.039062 -0.953125 3.289062 -1.070312 3.4375 -1.3125 C 3.59375 -1.550781 3.671875 -1.90625 3.671875 -2.375 C 3.671875 -2.84375 3.59375 -3.191406 3.4375 -3.421875 C 3.28125 -3.660156 3.03125 -3.78125 2.6875 -3.78125 C 2.34375 -3.78125 2.09375 -3.664062 1.9375 -3.4375 C 1.78125 -3.207031 1.703125 -2.851562 1.703125 -2.375 Z M 4.984375 -2.375 C 4.984375 -1.601562 4.78125 -1 4.375 -0.5625 C 3.96875 -0.132812 3.398438 0.078125 2.671875 0.078125 C 2.222656 0.078125 1.820312 -0.0195312 1.46875 -0.21875 C 1.125 -0.414062 0.859375 -0.703125 0.671875 -1.078125 C 0.484375 -1.453125 0.390625 -1.882812 0.390625 -2.375 C 0.390625 -3.15625 0.59375 -3.757812 1 -4.1875 C 1.40625 -4.613281 1.972656 -4.828125 2.703125 -4.828125 C 3.160156 -4.828125 3.5625 -4.726562 3.90625 -4.53125 C 4.25 -4.332031 4.515625 -4.046875 4.703125 -3.671875 C 4.890625 -3.304688 4.984375 -2.875 4.984375 -2.375 Z M 4.984375 -2.375 "/></g></g><g transform="translate(141.438269, 10.833197)"><g><path d="M 5.0625 0 L 3.765625 0 L 3.765625 -2.765625 C 3.765625 -3.109375 3.703125 -3.363281 3.578125 -3.53125 C 3.453125 -3.707031 3.257812 -3.796875 3 -3.796875 C 2.632812 -3.796875 2.367188 -3.675781 2.203125 -3.4375 C 2.046875 -3.195312 1.96875 -2.796875 1.96875 -2.234375 L 1.96875 0 L 0.671875 0 L 0.671875 -4.75 L 1.671875 -4.75 L 1.84375 -4.140625 L 1.90625 -4.140625 C 2.050781 -4.367188 2.25 -4.539062 2.5 -4.65625 C 2.757812 -4.769531 3.050781 -4.828125 3.375 -4.828125 C 3.925781 -4.828125 4.34375 -4.675781 4.625 -4.375 C 4.914062 -4.082031 5.0625 -3.65625 5.0625 -3.09375 Z M 5.0625 0 "/></g></g><g transform="translate(147.147782, 10.833197)"><g><path d="M 2.671875 -0.953125 C 2.898438 -0.953125 3.171875 -1 3.484375 -1.09375 L 3.484375 -0.125 C 3.160156 0.0078125 2.765625 0.078125 2.296875 0.078125 C 1.785156 0.078125 1.410156 -0.0507812 1.171875 -0.3125 C 0.929688 -0.570312 0.8125 -0.960938 0.8125 -1.484375 L 0.8125 -3.765625 L 0.203125 -3.765625 L 0.203125 -4.3125 L 0.90625 -4.75 L 1.28125 -5.75 L 2.109375 -5.75 L 2.109375 -4.75 L 3.4375 -4.75 L 3.4375 -3.765625 L 2.109375 -3.765625 L 2.109375 -1.484375 C 2.109375 -1.296875 2.160156 -1.160156 2.265625 -1.078125 C 2.367188 -0.992188 2.503906 -0.953125 2.671875 -0.953125 Z M 2.671875 -0.953125 "/></g></g><g transform="translate(150.918775, 10.833197)"><g><path d="M 0.625 -5.96875 C 0.625 -6.382812 0.859375 -6.59375 1.328125 -6.59375 C 1.796875 -6.59375 2.03125 -6.382812 2.03125 -5.96875 C 2.03125 -5.769531 1.972656 -5.613281 1.859375 -5.5 C 1.742188 -5.382812 1.566406 -5.328125 1.328125 -5.328125 C 0.859375 -5.328125 0.625 -5.539062 0.625 -5.96875 Z M 1.96875 0 L 0.671875 0 L 0.671875 -4.75 L 1.96875 -4.75 Z M 1.96875 0 "/></g></g><g transform="translate(153.569924, 10.833197)"><g><path d="M 5.0625 0 L 3.765625 0 L 3.765625 -2.765625 C 3.765625 -3.109375 3.703125 -3.363281 3.578125 -3.53125 C 3.453125 -3.707031 3.257812 -3.796875 3 -3.796875 C 2.632812 -3.796875 2.367188 -3.675781 2.203125 -3.4375 C 2.046875 -3.195312 1.96875 -2.796875 1.96875 -2.234375 L 1.96875 0 L 0.671875 0 L 0.671875 -4.75 L 1.671875 -4.75 L 1.84375 -4.140625 L 1.90625 -4.140625 C 2.050781 -4.367188 2.25 -4.539062 2.5 -4.65625 C 2.757812 -4.769531 3.050781 -4.828125 3.375 -4.828125 C 3.925781 -4.828125 4.34375 -4.675781 4.625 -4.375 C 4.914062 -4.082031 5.0625 -3.65625 5.0625 -3.09375 Z M 5.0625 0 "/></g></g><g transform="translate(159.279437, 10.833197)"><g><path d="M 4.03125 0 L 3.859375 -0.609375 L 3.796875 -0.609375 C 3.660156 -0.390625 3.460938 -0.21875 3.203125 -0.09375 C 2.953125 0.0195312 2.664062 0.078125 2.34375 0.078125 C 1.78125 0.078125 1.359375 -0.0664062 1.078125 -0.359375 C 0.796875 -0.660156 0.65625 -1.09375 0.65625 -1.65625 L 0.65625 -4.75 L 1.953125 -4.75 L 1.953125 -1.96875 C 1.953125 -1.625 2.007812 -1.367188 2.125 -1.203125 C 2.25 -1.035156 2.441406 -0.953125 2.703125 -0.953125 C 3.066406 -0.953125 3.328125 -1.070312 3.484375 -1.3125 C 3.648438 -1.550781 3.734375 -1.953125 3.734375 -2.515625 L 3.734375 -4.75 L 5.03125 -4.75 L 5.03125 0 Z M 4.03125 0 "/></g></g><g transform="translate(164.98895, 10.833197)"><g><path d="M 3.6875 0 L 3.4375 -0.640625 L 3.40625 -0.640625 C 3.1875 -0.367188 2.960938 -0.179688 2.734375 -0.078125 C 2.503906 0.0234375 2.203125 0.078125 1.828125 0.078125 C 1.378906 0.078125 1.019531 -0.0507812 0.75 -0.3125 C 0.488281 -0.570312 0.359375 -0.941406 0.359375 -1.421875 C 0.359375 -1.921875 0.535156 -2.289062 0.890625 -2.53125 C 1.242188 -2.769531 1.773438 -2.898438 2.484375 -2.921875 L 3.3125 -2.953125 L 3.3125 -3.15625 C 3.3125 -3.632812 3.066406 -3.875 2.578125 -3.875 C 2.191406 -3.875 1.742188 -3.757812 1.234375 -3.53125 L 0.8125 -4.40625 C 1.351562 -4.695312 1.957031 -4.84375 2.625 -4.84375 C 3.257812 -4.84375 3.742188 -4.703125 4.078125 -4.421875 C 4.421875 -4.148438 4.59375 -3.726562 4.59375 -3.15625 L 4.59375 0 Z M 3.3125 -2.203125 L 2.8125 -2.1875 C 2.4375 -2.164062 2.15625 -2.09375 1.96875 -1.96875 C 1.78125 -1.851562 1.6875 -1.664062 1.6875 -1.40625 C 1.6875 -1.039062 1.898438 -0.859375 2.328125 -0.859375 C 2.617188 -0.859375 2.851562 -0.941406 3.03125 -1.109375 C 3.21875 -1.285156 3.3125 -1.519531 3.3125 -1.8125 Z M 3.3125 -2.203125 "/></g></g><g transform="translate(170.236102, 10.833197)"><g><path d="M 3.328125 -4.828125 C 3.503906 -4.828125 3.648438 -4.816406 3.765625 -4.796875 L 3.671875 -3.578125 C 3.566406 -3.609375 3.4375 -3.625 3.28125 -3.625 C 2.863281 -3.625 2.539062 -3.515625 2.3125 -3.296875 C 2.082031 -3.085938 1.96875 -2.789062 1.96875 -2.40625 L 1.96875 0 L 0.671875 0 L 0.671875 -4.75 L 1.65625 -4.75 L 1.84375 -3.9375 L 1.90625 -3.9375 C 2.0625 -4.207031 2.265625 -4.421875 2.515625 -4.578125 C 2.765625 -4.742188 3.035156 -4.828125 3.328125 -4.828125 Z M 3.328125 -4.828125 "/></g></g></g><g fill="#ecb365" fill-opacity="1"><g transform="translate(3.941939, 22.41624)"><g><path d="M 2.1875 0.078125 C 1.625 0.078125 1.179688 -0.132812 0.859375 -0.5625 C 0.546875 -1 0.390625 -1.597656 0.390625 -2.359375 C 0.390625 -3.140625 0.550781 -3.742188 0.875 -4.171875 C 1.195312 -4.609375 1.644531 -4.828125 2.21875 -4.828125 C 2.8125 -4.828125 3.265625 -4.597656 3.578125 -4.140625 L 3.625 -4.140625 C 3.5625 -4.492188 3.53125 -4.804688 3.53125 -5.078125 L 3.53125 -6.59375 L 4.828125 -6.59375 L 4.828125 0 L 3.828125 0 L 3.578125 -0.609375 L 3.53125 -0.609375 C 3.226562 -0.148438 2.78125 0.078125 2.1875 0.078125 Z M 2.640625 -0.953125 C 2.960938 -0.953125 3.203125 -1.046875 3.359375 -1.234375 C 3.515625 -1.421875 3.597656 -1.75 3.609375 -2.21875 L 3.609375 -2.359375 C 3.609375 -2.867188 3.53125 -3.234375 3.375 -3.453125 C 3.21875 -3.671875 2.960938 -3.78125 2.609375 -3.78125 C 2.328125 -3.78125 2.101562 -3.65625 1.9375 -3.40625 C 1.78125 -3.164062 1.703125 -2.8125 1.703125 -2.34375 C 1.703125 -1.875 1.78125 -1.523438 1.9375 -1.296875 C 2.101562 -1.066406 2.335938 -0.953125 2.640625 -0.953125 Z M 2.640625 -0.953125 "/></g></g><g transform="translate(9.439361, 22.41624)"><g><path d="M 2.640625 -3.90625 C 2.367188 -3.90625 2.15625 -3.816406 2 -3.640625 C 1.84375 -3.472656 1.753906 -3.226562 1.734375 -2.90625 L 3.546875 -2.90625 C 3.535156 -3.226562 3.445312 -3.472656 3.28125 -3.640625 C 3.125 -3.816406 2.910156 -3.90625 2.640625 -3.90625 Z M 2.828125 0.078125 C 2.066406 0.078125 1.46875 -0.128906 1.03125 -0.546875 C 0.601562 -0.960938 0.390625 -1.5625 0.390625 -2.34375 C 0.390625 -3.132812 0.585938 -3.742188 0.984375 -4.171875 C 1.378906 -4.609375 1.929688 -4.828125 2.640625 -4.828125 C 3.304688 -4.828125 3.828125 -4.632812 4.203125 -4.25 C 4.578125 -3.875 4.765625 -3.347656 4.765625 -2.671875 L 4.765625 -2.046875 L 1.703125 -2.046875 C 1.710938 -1.679688 1.816406 -1.394531 2.015625 -1.1875 C 2.222656 -0.976562 2.515625 -0.875 2.890625 -0.875 C 3.171875 -0.875 3.4375 -0.90625 3.6875 -0.96875 C 3.945312 -1.03125 4.21875 -1.125 4.5 -1.25 L 4.5 -0.25 C 4.269531 -0.132812 4.023438 -0.0507812 3.765625 0 C 3.503906 0.0507812 3.191406 0.078125 2.828125 0.078125 Z M 2.828125 0.078125 "/></g></g><g transform="translate(14.571984, 22.41624)"><g><path d="M 3.984375 -1.40625 C 3.984375 -0.914062 3.8125 -0.546875 3.46875 -0.296875 C 3.132812 -0.046875 2.632812 0.078125 1.96875 0.078125 C 1.625 0.078125 1.328125 0.0507812 1.078125 0 C 0.835938 -0.0390625 0.613281 -0.101562 0.40625 -0.1875 L 0.40625 -1.265625 C 0.644531 -1.148438 0.910156 -1.050781 1.203125 -0.96875 C 1.503906 -0.894531 1.769531 -0.859375 2 -0.859375 C 2.46875 -0.859375 2.703125 -0.992188 2.703125 -1.265625 C 2.703125 -1.367188 2.671875 -1.453125 2.609375 -1.515625 C 2.554688 -1.578125 2.453125 -1.648438 2.296875 -1.734375 C 2.140625 -1.816406 1.9375 -1.910156 1.6875 -2.015625 C 1.320312 -2.171875 1.050781 -2.3125 0.875 -2.4375 C 0.707031 -2.570312 0.582031 -2.722656 0.5 -2.890625 C 0.425781 -3.054688 0.390625 -3.265625 0.390625 -3.515625 C 0.390625 -3.929688 0.550781 -4.253906 0.875 -4.484375 C 1.207031 -4.710938 1.671875 -4.828125 2.265625 -4.828125 C 2.835938 -4.828125 3.394531 -4.703125 3.9375 -4.453125 L 3.546875 -3.53125 C 3.304688 -3.625 3.082031 -3.703125 2.875 -3.765625 C 2.675781 -3.835938 2.46875 -3.875 2.25 -3.875 C 1.863281 -3.875 1.671875 -3.769531 1.671875 -3.5625 C 1.671875 -3.445312 1.734375 -3.347656 1.859375 -3.265625 C 1.984375 -3.179688 2.253906 -3.054688 2.671875 -2.890625 C 3.035156 -2.734375 3.300781 -2.585938 3.46875 -2.453125 C 3.644531 -2.328125 3.773438 -2.179688 3.859375 -2.015625 C 3.941406 -1.847656 3.984375 -1.644531 3.984375 -1.40625 Z M 3.984375 -1.40625 "/></g></g><g transform="translate(18.890174, 22.41624)"><g><path d="M 2.640625 -3.90625 C 2.367188 -3.90625 2.15625 -3.816406 2 -3.640625 C 1.84375 -3.472656 1.753906 -3.226562 1.734375 -2.90625 L 3.546875 -2.90625 C 3.535156 -3.226562 3.445312 -3.472656 3.28125 -3.640625 C 3.125 -3.816406 2.910156 -3.90625 2.640625 -3.90625 Z M 2.828125 0.078125 C 2.066406 0.078125 1.46875 -0.128906 1.03125 -0.546875 C 0.601562 -0.960938 0.390625 -1.5625 0.390625 -2.34375 C 0.390625 -3.132812 0.585938 -3.742188 0.984375 -4.171875 C 1.378906 -4.609375 1.929688 -4.828125 2.640625 -4.828125 C 3.304688 -4.828125 3.828125 -4.632812 4.203125 -4.25 C 4.578125 -3.875 4.765625 -3.347656 4.765625 -2.671875 L 4.765625 -2.046875 L 1.703125 -2.046875 C 1.710938 -1.679688 1.816406 -1.394531 2.015625 -1.1875 C 2.222656 -0.976562 2.515625 -0.875 2.890625 -0.875 C 3.171875 -0.875 3.4375 -0.90625 3.6875 -0.96875 C 3.945312 -1.03125 4.21875 -1.125 4.5 -1.25 L 4.5 -0.25 C 4.269531 -0.132812 4.023438 -0.0507812 3.765625 0 C 3.503906 0.0507812 3.191406 0.078125 2.828125 0.078125 Z M 2.828125 0.078125 "/></g></g><g transform="translate(24.022797, 22.41624)"><g><path d="M 5.0625 0 L 3.765625 0 L 3.765625 -2.765625 C 3.765625 -3.109375 3.703125 -3.363281 3.578125 -3.53125 C 3.453125 -3.707031 3.257812 -3.796875 3 -3.796875 C 2.632812 -3.796875 2.367188 -3.675781 2.203125 -3.4375 C 2.046875 -3.195312 1.96875 -2.796875 1.96875 -2.234375 L 1.96875 0 L 0.671875 0 L 0.671875 -4.75 L 1.671875 -4.75 L 1.84375 -4.140625 L 1.90625 -4.140625 C 2.050781 -4.367188 2.25 -4.539062 2.5 -4.65625 C 2.757812 -4.769531 3.050781 -4.828125 3.375 -4.828125 C 3.925781 -4.828125 4.34375 -4.675781 4.625 -4.375 C 4.914062 -4.082031 5.0625 -3.65625 5.0625 -3.09375 Z M 5.0625 0 "/></g></g><g transform="translate(29.73231, 22.41624)"><g><path d="M 1.8125 0 L 0 -4.75 L 1.359375 -4.75 L 2.265625 -2.046875 C 2.367188 -1.703125 2.429688 -1.375 2.453125 -1.0625 L 2.484375 -1.0625 C 2.492188 -1.332031 2.554688 -1.660156 2.671875 -2.046875 L 3.59375 -4.75 L 4.9375 -4.75 L 3.140625 0 Z M 1.8125 0 "/></g></g><g transform="translate(34.674051, 22.41624)"><g><path d="M 1.703125 -2.375 C 1.703125 -1.90625 1.78125 -1.550781 1.9375 -1.3125 C 2.09375 -1.070312 2.34375 -0.953125 2.6875 -0.953125 C 3.039062 -0.953125 3.289062 -1.070312 3.4375 -1.3125 C 3.59375 -1.550781 3.671875 -1.90625 3.671875 -2.375 C 3.671875 -2.84375 3.59375 -3.191406 3.4375 -3.421875 C 3.28125 -3.660156 3.03125 -3.78125 2.6875 -3.78125 C 2.34375 -3.78125 2.09375 -3.664062 1.9375 -3.4375 C 1.78125 -3.207031 1.703125 -2.851562 1.703125 -2.375 Z M 4.984375 -2.375 C 4.984375 -1.601562 4.78125 -1 4.375 -0.5625 C 3.96875 -0.132812 3.398438 0.078125 2.671875 0.078125 C 2.222656 0.078125 1.820312 -0.0195312 1.46875 -0.21875 C 1.125 -0.414062 0.859375 -0.703125 0.671875 -1.078125 C 0.484375 -1.453125 0.390625 -1.882812 0.390625 -2.375 C 0.390625 -3.15625 0.59375 -3.757812 1 -4.1875 C 1.40625 -4.613281 1.972656 -4.828125 2.703125 -4.828125 C 3.160156 -4.828125 3.5625 -4.726562 3.90625 -4.53125 C 4.25 -4.332031 4.515625 -4.046875 4.703125 -3.671875 C 4.890625 -3.304688 4.984375 -2.875 4.984375 -2.375 Z M 4.984375 -2.375 "/></g></g><g transform="translate(40.052701, 22.41624)"><g><path d="M 1.96875 0 L 0.671875 0 L 0.671875 -6.59375 L 1.96875 -6.59375 Z M 1.96875 0 "/></g></g><g transform="translate(42.703849, 22.41624)"><g><path d="M 1.8125 0 L 0 -4.75 L 1.359375 -4.75 L 2.265625 -2.046875 C 2.367188 -1.703125 2.429688 -1.375 2.453125 -1.0625 L 2.484375 -1.0625 C 2.492188 -1.332031 2.554688 -1.660156 2.671875 -2.046875 L 3.59375 -4.75 L 4.9375 -4.75 L 3.140625 0 Z M 1.8125 0 "/></g></g><g transform="translate(47.645589, 22.41624)"><g><path d="M 2.640625 -3.90625 C 2.367188 -3.90625 2.15625 -3.816406 2 -3.640625 C 1.84375 -3.472656 1.753906 -3.226562 1.734375 -2.90625 L 3.546875 -2.90625 C 3.535156 -3.226562 3.445312 -3.472656 3.28125 -3.640625 C 3.125 -3.816406 2.910156 -3.90625 2.640625 -3.90625 Z M 2.828125 0.078125 C 2.066406 0.078125 1.46875 -0.128906 1.03125 -0.546875 C 0.601562 -0.960938 0.390625 -1.5625 0.390625 -2.34375 C 0.390625 -3.132812 0.585938 -3.742188 0.984375 -4.171875 C 1.378906 -4.609375 1.929688 -4.828125 2.640625 -4.828125 C 3.304688 -4.828125 3.828125 -4.632812 4.203125 -4.25 C 4.578125 -3.875 4.765625 -3.347656 4.765625 -2.671875 L 4.765625 -2.046875 L 1.703125 -2.046875 C 1.710938 -1.679688 1.816406 -1.394531 2.015625 -1.1875 C 2.222656 -0.976562 2.515625 -0.875 2.890625 -0.875 C 3.171875 -0.875 3.4375 -0.90625 3.6875 -0.96875 C 3.945312 -1.03125 4.21875 -1.125 4.5 -1.25 L 4.5 -0.25 C 4.269531 -0.132812 4.023438 -0.0507812 3.765625 0 C 3.503906 0.0507812 3.191406 0.078125 2.828125 0.078125 Z M 2.828125 0.078125 "/></g></g><g transform="translate(52.778213, 22.41624)"><g><path d="M 5.0625 0 L 3.765625 0 L 3.765625 -2.765625 C 3.765625 -3.109375 3.703125 -3.363281 3.578125 -3.53125 C 3.453125 -3.707031 3.257812 -3.796875 3 -3.796875 C 2.632812 -3.796875 2.367188 -3.675781 2.203125 -3.4375 C 2.046875 -3.195312 1.96875 -2.796875 1.96875 -2.234375 L 1.96875 0 L 0.671875 0 L 0.671875 -4.75 L 1.671875 -4.75 L 1.84375 -4.140625 L 1.90625 -4.140625 C 2.050781 -4.367188 2.25 -4.539062 2.5 -4.65625 C 2.757812 -4.769531 3.050781 -4.828125 3.375 -4.828125 C 3.925781 -4.828125 4.34375 -4.675781 4.625 -4.375 C 4.914062 -4.082031 5.0625 -3.65625 5.0625 -3.09375 Z M 5.0625 0 "/></g></g><g transform="translate(58.487726, 22.41624)"><g><path d="M 2.1875 0.078125 C 1.625 0.078125 1.179688 -0.132812 0.859375 -0.5625 C 0.546875 -1 0.390625 -1.597656 0.390625 -2.359375 C 0.390625 -3.140625 0.550781 -3.742188 0.875 -4.171875 C 1.195312 -4.609375 1.644531 -4.828125 2.21875 -4.828125 C 2.8125 -4.828125 3.265625 -4.597656 3.578125 -4.140625 L 3.625 -4.140625 C 3.5625 -4.492188 3.53125 -4.804688 3.53125 -5.078125 L 3.53125 -6.59375 L 4.828125 -6.59375 L 4.828125 0 L 3.828125 0 L 3.578125 -0.609375 L 3.53125 -0.609375 C 3.226562 -0.148438 2.78125 0.078125 2.1875 0.078125 Z M 2.640625 -0.953125 C 2.960938 -0.953125 3.203125 -1.046875 3.359375 -1.234375 C 3.515625 -1.421875 3.597656 -1.75 3.609375 -2.21875 L 3.609375 -2.359375 C 3.609375 -2.867188 3.53125 -3.234375 3.375 -3.453125 C 3.21875 -3.671875 2.960938 -3.78125 2.609375 -3.78125 C 2.328125 -3.78125 2.101562 -3.65625 1.9375 -3.40625 C 1.78125 -3.164062 1.703125 -2.8125 1.703125 -2.34375 C 1.703125 -1.875 1.78125 -1.523438 1.9375 -1.296875 C 2.101562 -1.066406 2.335938 -0.953125 2.640625 -0.953125 Z M 2.640625 -0.953125 "/></g></g><g transform="translate(63.985147, 22.41624)"><g><path d="M 1.703125 -2.375 C 1.703125 -1.90625 1.78125 -1.550781 1.9375 -1.3125 C 2.09375 -1.070312 2.34375 -0.953125 2.6875 -0.953125 C 3.039062 -0.953125 3.289062 -1.070312 3.4375 -1.3125 C 3.59375 -1.550781 3.671875 -1.90625 3.671875 -2.375 C 3.671875 -2.84375 3.59375 -3.191406 3.4375 -3.421875 C 3.28125 -3.660156 3.03125 -3.78125 2.6875 -3.78125 C 2.34375 -3.78125 2.09375 -3.664062 1.9375 -3.4375 C 1.78125 -3.207031 1.703125 -2.851562 1.703125 -2.375 Z M 4.984375 -2.375 C 4.984375 -1.601562 4.78125 -1 4.375 -0.5625 C 3.96875 -0.132812 3.398438 0.078125 2.671875 0.078125 C 2.222656 0.078125 1.820312 -0.0195312 1.46875 -0.21875 C 1.125 -0.414062 0.859375 -0.703125 0.671875 -1.078125 C 0.484375 -1.453125 0.390625 -1.882812 0.390625 -2.375 C 0.390625 -3.15625 0.59375 -3.757812 1 -4.1875 C 1.40625 -4.613281 1.972656 -4.828125 2.703125 -4.828125 C 3.160156 -4.828125 3.5625 -4.726562 3.90625 -4.53125 C 4.25 -4.332031 4.515625 -4.046875 4.703125 -3.671875 C 4.890625 -3.304688 4.984375 -2.875 4.984375 -2.375 Z M 4.984375 -2.375 "/></g></g><g transform="translate(69.363797, 22.41624)"><g><path d="M 1.765625 -2.0625 L 0.734375 -2.0625 L 0.515625 -6.203125 L 1.984375 -6.203125 Z M 0.5 -0.609375 C 0.5 -0.847656 0.5625 -1.023438 0.6875 -1.140625 C 0.8125 -1.265625 1 -1.328125 1.25 -1.328125 C 1.476562 -1.328125 1.65625 -1.265625 1.78125 -1.140625 C 1.914062 -1.015625 1.984375 -0.835938 1.984375 -0.609375 C 1.984375 -0.378906 1.914062 -0.203125 1.78125 -0.078125 C 1.65625 0.046875 1.476562 0.109375 1.25 0.109375 C 1.007812 0.109375 0.820312 0.046875 0.6875 -0.078125 C 0.5625 -0.203125 0.5 -0.378906 0.5 -0.609375 Z M 0.5 -0.609375 "/></g></g><g transform="translate(71.849513, 22.41624)"><g/></g><g transform="translate(74.106171, 22.41624)"><g><path d="M 3.171875 0 L 1.859375 0 L 1.859375 -5.109375 L 0.171875 -5.109375 L 0.171875 -6.203125 L 4.859375 -6.203125 L 4.859375 -5.109375 L 3.171875 -5.109375 Z M 3.171875 0 "/></g></g><g transform="translate(79.13699, 22.41624)"><g><path d="M 1.703125 -2.375 C 1.703125 -1.90625 1.78125 -1.550781 1.9375 -1.3125 C 2.09375 -1.070312 2.34375 -0.953125 2.6875 -0.953125 C 3.039062 -0.953125 3.289062 -1.070312 3.4375 -1.3125 C 3.59375 -1.550781 3.671875 -1.90625 3.671875 -2.375 C 3.671875 -2.84375 3.59375 -3.191406 3.4375 -3.421875 C 3.28125 -3.660156 3.03125 -3.78125 2.6875 -3.78125 C 2.34375 -3.78125 2.09375 -3.664062 1.9375 -3.4375 C 1.78125 -3.207031 1.703125 -2.851562 1.703125 -2.375 Z M 4.984375 -2.375 C 4.984375 -1.601562 4.78125 -1 4.375 -0.5625 C 3.96875 -0.132812 3.398438 0.078125 2.671875 0.078125 C 2.222656 0.078125 1.820312 -0.0195312 1.46875 -0.21875 C 1.125 -0.414062 0.859375 -0.703125 0.671875 -1.078125 C 0.484375 -1.453125 0.390625 -1.882812 0.390625 -2.375 C 0.390625 -3.15625 0.59375 -3.757812 1 -4.1875 C 1.40625 -4.613281 1.972656 -4.828125 2.703125 -4.828125 C 3.160156 -4.828125 3.5625 -4.726562 3.90625 -4.53125 C 4.25 -4.332031 4.515625 -4.046875 4.703125 -3.671875 C 4.890625 -3.304688 4.984375 -2.875 4.984375 -2.375 Z M 4.984375 -2.375 "/></g></g><g transform="translate(84.51564, 22.41624)"><g><path d="M 2.1875 0.078125 C 1.625 0.078125 1.179688 -0.132812 0.859375 -0.5625 C 0.546875 -1 0.390625 -1.597656 0.390625 -2.359375 C 0.390625 -3.140625 0.550781 -3.742188 0.875 -4.171875 C 1.195312 -4.609375 1.644531 -4.828125 2.21875 -4.828125 C 2.8125 -4.828125 3.265625 -4.597656 3.578125 -4.140625 L 3.625 -4.140625 C 3.5625 -4.492188 3.53125 -4.804688 3.53125 -5.078125 L 3.53125 -6.59375 L 4.828125 -6.59375 L 4.828125 0 L 3.828125 0 L 3.578125 -0.609375 L 3.53125 -0.609375 C 3.226562 -0.148438 2.78125 0.078125 2.1875 0.078125 Z M 2.640625 -0.953125 C 2.960938 -0.953125 3.203125 -1.046875 3.359375 -1.234375 C 3.515625 -1.421875 3.597656 -1.75 3.609375 -2.21875 L 3.609375 -2.359375 C 3.609375 -2.867188 3.53125 -3.234375 3.375 -3.453125 C 3.21875 -3.671875 2.960938 -3.78125 2.609375 -3.78125 C 2.328125 -3.78125 2.101562 -3.65625 1.9375 -3.40625 C 1.78125 -3.164062 1.703125 -2.8125 1.703125 -2.34375 C 1.703125 -1.875 1.78125 -1.523438 1.9375 -1.296875 C 2.101562 -1.066406 2.335938 -0.953125 2.640625 -0.953125 Z M 2.640625 -0.953125 "/></g></g><g transform="translate(90.013061, 22.41624)"><g><path d="M 3.6875 0 L 3.4375 -0.640625 L 3.40625 -0.640625 C 3.1875 -0.367188 2.960938 -0.179688 2.734375 -0.078125 C 2.503906 0.0234375 2.203125 0.078125 1.828125 0.078125 C 1.378906 0.078125 1.019531 -0.0507812 0.75 -0.3125 C 0.488281 -0.570312 0.359375 -0.941406 0.359375 -1.421875 C 0.359375 -1.921875 0.535156 -2.289062 0.890625 -2.53125 C 1.242188 -2.769531 1.773438 -2.898438 2.484375 -2.921875 L 3.3125 -2.953125 L 3.3125 -3.15625 C 3.3125 -3.632812 3.066406 -3.875 2.578125 -3.875 C 2.191406 -3.875 1.742188 -3.757812 1.234375 -3.53125 L 0.8125 -4.40625 C 1.351562 -4.695312 1.957031 -4.84375 2.625 -4.84375 C 3.257812 -4.84375 3.742188 -4.703125 4.078125 -4.421875 C 4.421875 -4.148438 4.59375 -3.726562 4.59375 -3.15625 L 4.59375 0 Z M 3.3125 -2.203125 L 2.8125 -2.1875 C 2.4375 -2.164062 2.15625 -2.09375 1.96875 -1.96875 C 1.78125 -1.851562 1.6875 -1.664062 1.6875 -1.40625 C 1.6875 -1.039062 1.898438 -0.859375 2.328125 -0.859375 C 2.617188 -0.859375 2.851562 -0.941406 3.03125 -1.109375 C 3.21875 -1.285156 3.3125 -1.519531 3.3125 -1.8125 Z M 3.3125 -2.203125 "/></g></g><g transform="translate(95.260214, 22.41624)"><g/></g><g transform="translate(97.516871, 22.41624)"><g><path d="M 3.6875 0 L 3.4375 -0.640625 L 3.40625 -0.640625 C 3.1875 -0.367188 2.960938 -0.179688 2.734375 -0.078125 C 2.503906 0.0234375 2.203125 0.078125 1.828125 0.078125 C 1.378906 0.078125 1.019531 -0.0507812 0.75 -0.3125 C 0.488281 -0.570312 0.359375 -0.941406 0.359375 -1.421875 C 0.359375 -1.921875 0.535156 -2.289062 0.890625 -2.53125 C 1.242188 -2.769531 1.773438 -2.898438 2.484375 -2.921875 L 3.3125 -2.953125 L 3.3125 -3.15625 C 3.3125 -3.632812 3.066406 -3.875 2.578125 -3.875 C 2.191406 -3.875 1.742188 -3.757812 1.234375 -3.53125 L 0.8125 -4.40625 C 1.351562 -4.695312 1.957031 -4.84375 2.625 -4.84375 C 3.257812 -4.84375 3.742188 -4.703125 4.078125 -4.421875 C 4.421875 -4.148438 4.59375 -3.726562 4.59375 -3.15625 L 4.59375 0 Z M 3.3125 -2.203125 L 2.8125 -2.1875 C 2.4375 -2.164062 2.15625 -2.09375 1.96875 -1.96875 C 1.78125 -1.851562 1.6875 -1.664062 1.6875 -1.40625 C 1.6875 -1.039062 1.898438 -0.859375 2.328125 -0.859375 C 2.617188 -0.859375 2.851562 -0.941406 3.03125 -1.109375 C 3.21875 -1.285156 3.3125 -1.519531 3.3125 -1.8125 Z M 3.3125 -2.203125 "/></g></g><g transform="translate(102.764024, 22.41624)"><g><path d="M 0.296875 2.09375 C -0.0351562 2.09375 -0.320312 2.054688 -0.5625 1.984375 L -0.5625 0.96875 C -0.363281 1.019531 -0.160156 1.046875 0.046875 1.046875 C 0.265625 1.046875 0.421875 0.984375 0.515625 0.859375 C 0.617188 0.734375 0.671875 0.554688 0.671875 0.328125 L 0.671875 -4.75 L 1.96875 -4.75 L 1.96875 0.515625 C 1.96875 1.015625 1.820312 1.398438 1.53125 1.671875 C 1.238281 1.953125 0.828125 2.09375 0.296875 2.09375 Z M 0.625 -5.96875 C 0.625 -6.382812 0.859375 -6.59375 1.328125 -6.59375 C 1.796875 -6.59375 2.03125 -6.382812 2.03125 -5.96875 C 2.03125 -5.769531 1.972656 -5.613281 1.859375 -5.5 C 1.742188 -5.382812 1.566406 -5.328125 1.328125 -5.328125 C 0.859375 -5.328125 0.625 -5.539062 0.625 -5.96875 Z M 0.625 -5.96875 "/></g></g><g transform="translate(105.415172, 22.41624)"><g><path d="M 4.03125 0 L 3.859375 -0.609375 L 3.796875 -0.609375 C 3.660156 -0.390625 3.460938 -0.21875 3.203125 -0.09375 C 2.953125 0.0195312 2.664062 0.078125 2.34375 0.078125 C 1.78125 0.078125 1.359375 -0.0664062 1.078125 -0.359375 C 0.796875 -0.660156 0.65625 -1.09375 0.65625 -1.65625 L 0.65625 -4.75 L 1.953125 -4.75 L 1.953125 -1.96875 C 1.953125 -1.625 2.007812 -1.367188 2.125 -1.203125 C 2.25 -1.035156 2.441406 -0.953125 2.703125 -0.953125 C 3.066406 -0.953125 3.328125 -1.070312 3.484375 -1.3125 C 3.648438 -1.550781 3.734375 -1.953125 3.734375 -2.515625 L 3.734375 -4.75 L 5.03125 -4.75 L 5.03125 0 Z M 4.03125 0 "/></g></g><g transform="translate(111.124685, 22.41624)"><g><path d="M 2.1875 0.078125 C 1.625 0.078125 1.179688 -0.132812 0.859375 -0.5625 C 0.546875 -1 0.390625 -1.597656 0.390625 -2.359375 C 0.390625 -3.140625 0.550781 -3.742188 0.875 -4.171875 C 1.195312 -4.609375 1.644531 -4.828125 2.21875 -4.828125 C 2.8125 -4.828125 3.265625 -4.597656 3.578125 -4.140625 L 3.625 -4.140625 C 3.5625 -4.492188 3.53125 -4.804688 3.53125 -5.078125 L 3.53125 -6.59375 L 4.828125 -6.59375 L 4.828125 0 L 3.828125 0 L 3.578125 -0.609375 L 3.53125 -0.609375 C 3.226562 -0.148438 2.78125 0.078125 2.1875 0.078125 Z M 2.640625 -0.953125 C 2.960938 -0.953125 3.203125 -1.046875 3.359375 -1.234375 C 3.515625 -1.421875 3.597656 -1.75 3.609375 -2.21875 L 3.609375 -2.359375 C 3.609375 -2.867188 3.53125 -3.234375 3.375 -3.453125 C 3.21875 -3.671875 2.960938 -3.78125 2.609375 -3.78125 C 2.328125 -3.78125 2.101562 -3.65625 1.9375 -3.40625 C 1.78125 -3.164062 1.703125 -2.8125 1.703125 -2.34375 C 1.703125 -1.875 1.78125 -1.523438 1.9375 -1.296875 C 2.101562 -1.066406 2.335938 -0.953125 2.640625 -0.953125 Z M 2.640625 -0.953125 "/></g></g><g transform="translate(116.622106, 22.41624)"><g><path d="M 3.6875 0 L 3.4375 -0.640625 L 3.40625 -0.640625 C 3.1875 -0.367188 2.960938 -0.179688 2.734375 -0.078125 C 2.503906 0.0234375 2.203125 0.078125 1.828125 0.078125 C 1.378906 0.078125 1.019531 -0.0507812 0.75 -0.3125 C 0.488281 -0.570312 0.359375 -0.941406 0.359375 -1.421875 C 0.359375 -1.921875 0.535156 -2.289062 0.890625 -2.53125 C 1.242188 -2.769531 1.773438 -2.898438 2.484375 -2.921875 L 3.3125 -2.953125 L 3.3125 -3.15625 C 3.3125 -3.632812 3.066406 -3.875 2.578125 -3.875 C 2.191406 -3.875 1.742188 -3.757812 1.234375 -3.53125 L 0.8125 -4.40625 C 1.351562 -4.695312 1.957031 -4.84375 2.625 -4.84375 C 3.257812 -4.84375 3.742188 -4.703125 4.078125 -4.421875 C 4.421875 -4.148438 4.59375 -3.726562 4.59375 -3.15625 L 4.59375 0 Z M 3.3125 -2.203125 L 2.8125 -2.1875 C 2.4375 -2.164062 2.15625 -2.09375 1.96875 -1.96875 C 1.78125 -1.851562 1.6875 -1.664062 1.6875 -1.40625 C 1.6875 -1.039062 1.898438 -0.859375 2.328125 -0.859375 C 2.617188 -0.859375 2.851562 -0.941406 3.03125 -1.109375 C 3.21875 -1.285156 3.3125 -1.519531 3.3125 -1.8125 Z M 3.3125 -2.203125 "/></g></g><g transform="translate(121.869259, 22.41624)"><g/></g><g transform="translate(124.125917, 22.41624)"><g><path d="M 2.640625 -3.90625 C 2.367188 -3.90625 2.15625 -3.816406 2 -3.640625 C 1.84375 -3.472656 1.753906 -3.226562 1.734375 -2.90625 L 3.546875 -2.90625 C 3.535156 -3.226562 3.445312 -3.472656 3.28125 -3.640625 C 3.125 -3.816406 2.910156 -3.90625 2.640625 -3.90625 Z M 2.828125 0.078125 C 2.066406 0.078125 1.46875 -0.128906 1.03125 -0.546875 C 0.601562 -0.960938 0.390625 -1.5625 0.390625 -2.34375 C 0.390625 -3.132812 0.585938 -3.742188 0.984375 -4.171875 C 1.378906 -4.609375 1.929688 -4.828125 2.640625 -4.828125 C 3.304688 -4.828125 3.828125 -4.632812 4.203125 -4.25 C 4.578125 -3.875 4.765625 -3.347656 4.765625 -2.671875 L 4.765625 -2.046875 L 1.703125 -2.046875 C 1.710938 -1.679688 1.816406 -1.394531 2.015625 -1.1875 C 2.222656 -0.976562 2.515625 -0.875 2.890625 -0.875 C 3.171875 -0.875 3.4375 -0.90625 3.6875 -0.96875 C 3.945312 -1.03125 4.21875 -1.125 4.5 -1.25 L 4.5 -0.25 C 4.269531 -0.132812 4.023438 -0.0507812 3.765625 0 C 3.503906 0.0507812 3.191406 0.078125 2.828125 0.078125 Z M 1.890625 -5.265625 L 1.890625 -5.375 C 2.378906 -5.945312 2.710938 -6.375 2.890625 -6.65625 L 4.34375 -6.65625 L 4.34375 -6.5625 C 4.195312 -6.414062 3.945312 -6.195312 3.59375 -5.90625 C 3.238281 -5.613281 2.957031 -5.398438 2.75 -5.265625 Z M 1.890625 -5.265625 "/></g></g><g transform="translate(129.25854, 22.41624)"><g/></g><g transform="translate(131.515197, 22.41624)"><g><path d="M 3.3125 -4.828125 C 3.875 -4.828125 4.3125 -4.609375 4.625 -4.171875 C 4.945312 -3.734375 5.109375 -3.132812 5.109375 -2.375 C 5.109375 -1.59375 4.941406 -0.988281 4.609375 -0.5625 C 4.285156 -0.132812 3.84375 0.078125 3.28125 0.078125 C 2.726562 0.078125 2.289062 -0.117188 1.96875 -0.515625 L 1.890625 -0.515625 L 1.671875 0 L 0.671875 0 L 0.671875 -6.59375 L 1.96875 -6.59375 L 1.96875 -5.0625 C 1.96875 -4.863281 1.953125 -4.550781 1.921875 -4.125 L 1.96875 -4.125 C 2.269531 -4.59375 2.71875 -4.828125 3.3125 -4.828125 Z M 2.90625 -3.796875 C 2.582031 -3.796875 2.347656 -3.695312 2.203125 -3.5 C 2.054688 -3.300781 1.976562 -2.976562 1.96875 -2.53125 L 1.96875 -2.390625 C 1.96875 -1.878906 2.039062 -1.515625 2.1875 -1.296875 C 2.34375 -1.078125 2.585938 -0.96875 2.921875 -0.96875 C 3.179688 -0.96875 3.390625 -1.085938 3.546875 -1.328125 C 3.703125 -1.578125 3.78125 -1.929688 3.78125 -2.390625 C 3.78125 -2.859375 3.703125 -3.207031 3.546875 -3.4375 C 3.390625 -3.675781 3.175781 -3.796875 2.90625 -3.796875 Z M 2.90625 -3.796875 "/></g></g><g transform="translate(137.012619, 22.41624)"><g><path d="M 2.640625 -3.90625 C 2.367188 -3.90625 2.15625 -3.816406 2 -3.640625 C 1.84375 -3.472656 1.753906 -3.226562 1.734375 -2.90625 L 3.546875 -2.90625 C 3.535156 -3.226562 3.445312 -3.472656 3.28125 -3.640625 C 3.125 -3.816406 2.910156 -3.90625 2.640625 -3.90625 Z M 2.828125 0.078125 C 2.066406 0.078125 1.46875 -0.128906 1.03125 -0.546875 C 0.601562 -0.960938 0.390625 -1.5625 0.390625 -2.34375 C 0.390625 -3.132812 0.585938 -3.742188 0.984375 -4.171875 C 1.378906 -4.609375 1.929688 -4.828125 2.640625 -4.828125 C 3.304688 -4.828125 3.828125 -4.632812 4.203125 -4.25 C 4.578125 -3.875 4.765625 -3.347656 4.765625 -2.671875 L 4.765625 -2.046875 L 1.703125 -2.046875 C 1.710938 -1.679688 1.816406 -1.394531 2.015625 -1.1875 C 2.222656 -0.976562 2.515625 -0.875 2.890625 -0.875 C 3.171875 -0.875 3.4375 -0.90625 3.6875 -0.96875 C 3.945312 -1.03125 4.21875 -1.125 4.5 -1.25 L 4.5 -0.25 C 4.269531 -0.132812 4.023438 -0.0507812 3.765625 0 C 3.503906 0.0507812 3.191406 0.078125 2.828125 0.078125 Z M 2.828125 0.078125 "/></g></g><g transform="translate(142.145242, 22.41624)"><g><path d="M 4.921875 0 L 3.625 0 L 3.625 -2.765625 C 3.625 -3.109375 3.566406 -3.363281 3.453125 -3.53125 C 3.335938 -3.707031 3.160156 -3.796875 2.921875 -3.796875 C 2.585938 -3.796875 2.34375 -3.671875 2.1875 -3.421875 C 2.039062 -3.179688 1.96875 -2.785156 1.96875 -2.234375 L 1.96875 0 L 0.671875 0 L 0.671875 -4.75 L 1.671875 -4.75 L 1.84375 -4.140625 L 1.90625 -4.140625 C 2.039062 -4.359375 2.226562 -4.523438 2.46875 -4.640625 C 2.707031 -4.765625 2.984375 -4.828125 3.296875 -4.828125 C 4.003906 -4.828125 4.484375 -4.597656 4.734375 -4.140625 L 4.84375 -4.140625 C 4.976562 -4.359375 5.164062 -4.523438 5.40625 -4.640625 C 5.65625 -4.765625 5.9375 -4.828125 6.25 -4.828125 C 6.78125 -4.828125 7.179688 -4.6875 7.453125 -4.40625 C 7.734375 -4.132812 7.875 -3.695312 7.875 -3.09375 L 7.875 0 L 6.578125 0 L 6.578125 -2.765625 C 6.578125 -3.109375 6.519531 -3.363281 6.40625 -3.53125 C 6.289062 -3.707031 6.113281 -3.796875 5.875 -3.796875 C 5.550781 -3.796875 5.3125 -3.679688 5.15625 -3.453125 C 5 -3.234375 4.921875 -2.875 4.921875 -2.375 Z M 4.921875 0 "/></g></g><g transform="translate(150.675576, 22.41624)"><g><path d="M 0.265625 -1.796875 L 0.265625 -2.859375 L 2.53125 -2.859375 L 2.53125 -1.796875 Z M 0.265625 -1.796875 "/></g></g><g transform="translate(153.470947, 22.41624)"><g><path d="M 1.8125 0 L 0 -4.75 L 1.359375 -4.75 L 2.265625 -2.046875 C 2.367188 -1.703125 2.429688 -1.375 2.453125 -1.0625 L 2.484375 -1.0625 C 2.492188 -1.332031 2.554688 -1.660156 2.671875 -2.046875 L 3.59375 -4.75 L 4.9375 -4.75 L 3.140625 0 Z M 1.8125 0 "/></g></g><g transform="translate(158.412688, 22.41624)"><g><path d="M 0.625 -5.96875 C 0.625 -6.382812 0.859375 -6.59375 1.328125 -6.59375 C 1.796875 -6.59375 2.03125 -6.382812 2.03125 -5.96875 C 2.03125 -5.769531 1.972656 -5.613281 1.859375 -5.5 C 1.742188 -5.382812 1.566406 -5.328125 1.328125 -5.328125 C 0.859375 -5.328125 0.625 -5.539062 0.625 -5.96875 Z M 1.96875 0 L 0.671875 0 L 0.671875 -4.75 L 1.96875 -4.75 Z M 1.96875 0 "/></g></g><g transform="translate(161.063836, 22.41624)"><g><path d="M 5.0625 0 L 3.765625 0 L 3.765625 -2.765625 C 3.765625 -3.109375 3.703125 -3.363281 3.578125 -3.53125 C 3.453125 -3.707031 3.257812 -3.796875 3 -3.796875 C 2.632812 -3.796875 2.367188 -3.675781 2.203125 -3.4375 C 2.046875 -3.195312 1.96875 -2.796875 1.96875 -2.234375 L 1.96875 0 L 0.671875 0 L 0.671875 -4.75 L 1.671875 -4.75 L 1.84375 -4.140625 L 1.90625 -4.140625 C 2.050781 -4.367188 2.25 -4.539062 2.5 -4.65625 C 2.757812 -4.769531 3.050781 -4.828125 3.375 -4.828125 C 3.925781 -4.828125 4.34375 -4.675781 4.625 -4.375 C 4.914062 -4.082031 5.0625 -3.65625 5.0625 -3.09375 Z M 5.0625 0 "/></g></g><g transform="translate(166.773349, 22.41624)"><g><path d="M 2.1875 0.078125 C 1.625 0.078125 1.179688 -0.132812 0.859375 -0.5625 C 0.546875 -1 0.390625 -1.597656 0.390625 -2.359375 C 0.390625 -3.140625 0.550781 -3.742188 0.875 -4.171875 C 1.195312 -4.609375 1.644531 -4.828125 2.21875 -4.828125 C 2.8125 -4.828125 3.265625 -4.597656 3.578125 -4.140625 L 3.625 -4.140625 C 3.5625 -4.492188 3.53125 -4.804688 3.53125 -5.078125 L 3.53125 -6.59375 L 4.828125 -6.59375 L 4.828125 0 L 3.828125 0 L 3.578125 -0.609375 L 3.53125 -0.609375 C 3.226562 -0.148438 2.78125 0.078125 2.1875 0.078125 Z M 2.640625 -0.953125 C 2.960938 -0.953125 3.203125 -1.046875 3.359375 -1.234375 C 3.515625 -1.421875 3.597656 -1.75 3.609375 -2.21875 L 3.609375 -2.359375 C 3.609375 -2.867188 3.53125 -3.234375 3.375 -3.453125 C 3.21875 -3.671875 2.960938 -3.78125 2.609375 -3.78125 C 2.328125 -3.78125 2.101562 -3.65625 1.9375 -3.40625 C 1.78125 -3.164062 1.703125 -2.8125 1.703125 -2.34375 C 1.703125 -1.875 1.78125 -1.523438 1.9375 -1.296875 C 2.101562 -1.066406 2.335938 -0.953125 2.640625 -0.953125 Z M 2.640625 -0.953125 "/></g></g><g transform="translate(172.27077, 22.41624)"><g><path d="M 3.6875 0 L 3.4375 -0.640625 L 3.40625 -0.640625 C 3.1875 -0.367188 2.960938 -0.179688 2.734375 -0.078125 C 2.503906 0.0234375 2.203125 0.078125 1.828125 0.078125 C 1.378906 0.078125 1.019531 -0.0507812 0.75 -0.3125 C 0.488281 -0.570312 0.359375 -0.941406 0.359375 -1.421875 C 0.359375 -1.921875 0.535156 -2.289062 0.890625 -2.53125 C 1.242188 -2.769531 1.773438 -2.898438 2.484375 -2.921875 L 3.3125 -2.953125 L 3.3125 -3.15625 C 3.3125 -3.632812 3.066406 -3.875 2.578125 -3.875 C 2.191406 -3.875 1.742188 -3.757812 1.234375 -3.53125 L 0.8125 -4.40625 C 1.351562 -4.695312 1.957031 -4.84375 2.625 -4.84375 C 3.257812 -4.84375 3.742188 -4.703125 4.078125 -4.421875 C 4.421875 -4.148438 4.59375 -3.726562 4.59375 -3.15625 L 4.59375 0 Z M 3.3125 -2.203125 L 2.8125 -2.1875 C 2.4375 -2.164062 2.15625 -2.09375 1.96875 -1.96875 C 1.78125 -1.851562 1.6875 -1.664062 1.6875 -1.40625 C 1.6875 -1.039062 1.898438 -0.859375 2.328125 -0.859375 C 2.617188 -0.859375 2.851562 -0.941406 3.03125 -1.109375 C 3.21875 -1.285156 3.3125 -1.519531 3.3125 -1.8125 Z M 3.3125 -2.203125 "/></g></g><g transform="translate(177.517923, 22.41624)"><g><path d="M 1.765625 -2.0625 L 0.734375 -2.0625 L 0.515625 -6.203125 L 1.984375 -6.203125 Z M 0.5 -0.609375 C 0.5 -0.847656 0.5625 -1.023438 0.6875 -1.140625 C 0.8125 -1.265625 1 -1.328125 1.25 -1.328125 C 1.476562 -1.328125 1.65625 -1.265625 1.78125 -1.140625 C 1.914062 -1.015625 1.984375 -0.835938 1.984375 -0.609375 C 1.984375 -0.378906 1.914062 -0.203125 1.78125 -0.078125 C 1.65625 0.046875 1.476562 0.109375 1.25 0.109375 C 1.007812 0.109375 0.820312 0.046875 0.6875 -0.078125 C 0.5625 -0.203125 0.5 -0.378906 0.5 -0.609375 Z M 0.5 -0.609375 "/></g></g></g></svg>